<svg width="558" height="520" viewBox="0 0 558 520" fill="none" xmlns="http://www.w3.org/2000/svg">
<rect x="104.5" y="70.5" width="397" height="416" rx="30.5" fill="white"/>
<rect x="104.5" y="70.5" width="397" height="416" rx="30.5" stroke="black"/>
<rect x="112" y="78" width="382" height="240" rx="24" fill="#F8F3E7"/>
<rect x="124" y="334" width="330" height="18" rx="9" fill="#F4E9D8"/>
<rect x="124" y="362" width="261" height="18" rx="9" fill="#F4E9D8"/>
<path d="M128.784 409.455V394.909H129.716V409.455H128.784ZM131.472 399.562C131.419 399.066 131.195 398.68 130.801 398.403C130.411 398.127 129.903 397.989 129.278 397.989C128.839 397.989 128.462 398.055 128.148 398.188C127.833 398.32 127.593 398.5 127.426 398.727C127.259 398.955 127.174 399.214 127.17 399.506C127.17 399.748 127.225 399.958 127.335 400.136C127.449 400.314 127.602 400.466 127.795 400.591C127.989 400.712 128.203 400.814 128.438 400.898C128.672 400.981 128.909 401.051 129.148 401.108L130.239 401.381C130.678 401.483 131.1 401.621 131.506 401.795C131.915 401.97 132.28 402.189 132.602 402.455C132.928 402.72 133.186 403.04 133.375 403.415C133.564 403.79 133.659 404.229 133.659 404.733C133.659 405.415 133.485 406.015 133.136 406.534C132.788 407.049 132.284 407.453 131.625 407.744C130.97 408.032 130.176 408.176 129.244 408.176C128.339 408.176 127.553 408.036 126.886 407.756C126.223 407.475 125.705 407.066 125.33 406.528C124.958 405.991 124.758 405.335 124.727 404.562H126.801C126.831 404.968 126.956 405.305 127.176 405.574C127.396 405.843 127.682 406.044 128.034 406.176C128.39 406.309 128.788 406.375 129.227 406.375C129.686 406.375 130.087 406.307 130.432 406.17C130.78 406.03 131.053 405.837 131.25 405.591C131.447 405.341 131.547 405.049 131.551 404.716C131.547 404.413 131.458 404.163 131.284 403.966C131.11 403.765 130.866 403.598 130.551 403.466C130.241 403.33 129.877 403.208 129.46 403.102L128.136 402.761C127.178 402.515 126.42 402.142 125.864 401.642C125.311 401.138 125.034 400.47 125.034 399.636C125.034 398.951 125.22 398.35 125.591 397.835C125.966 397.32 126.475 396.92 127.119 396.636C127.763 396.348 128.492 396.205 129.307 396.205C130.133 396.205 130.856 396.348 131.477 396.636C132.102 396.92 132.593 397.316 132.949 397.824C133.305 398.328 133.489 398.907 133.5 399.562H131.472ZM139.186 408.159C138.629 408.155 138.086 408.059 137.555 407.869C137.025 407.676 136.548 407.364 136.124 406.932C135.699 406.496 135.362 405.919 135.112 405.199C134.862 404.475 134.739 403.58 134.743 402.511C134.743 401.515 134.849 400.627 135.061 399.847C135.273 399.066 135.578 398.407 135.976 397.869C136.374 397.328 136.853 396.915 137.413 396.631C137.978 396.347 138.608 396.205 139.305 396.205C140.036 396.205 140.684 396.348 141.249 396.636C141.817 396.924 142.275 397.318 142.624 397.818C142.972 398.314 143.188 398.875 143.271 399.5H141.197C141.091 399.053 140.874 398.697 140.544 398.432C140.218 398.163 139.805 398.028 139.305 398.028C138.499 398.028 137.877 398.379 137.442 399.08C137.01 399.78 136.792 400.742 136.788 401.966H136.868C137.054 401.633 137.294 401.347 137.589 401.108C137.885 400.869 138.218 400.686 138.589 400.557C138.964 400.424 139.36 400.358 139.777 400.358C140.459 400.358 141.071 400.521 141.612 400.847C142.158 401.172 142.589 401.621 142.908 402.193C143.226 402.761 143.383 403.413 143.379 404.148C143.383 404.913 143.209 405.6 142.857 406.21C142.504 406.816 142.014 407.294 141.385 407.642C140.756 407.991 140.023 408.163 139.186 408.159ZM139.175 406.455C139.588 406.455 139.957 406.354 140.283 406.153C140.608 405.953 140.866 405.682 141.055 405.341C141.245 405 141.338 404.617 141.334 404.193C141.338 403.777 141.247 403.4 141.061 403.062C140.879 402.725 140.627 402.458 140.305 402.261C139.983 402.064 139.616 401.966 139.203 401.966C138.896 401.966 138.61 402.025 138.345 402.142C138.08 402.259 137.849 402.422 137.652 402.631C137.455 402.835 137.3 403.074 137.186 403.347C137.076 403.616 137.019 403.903 137.016 404.21C137.019 404.616 137.114 404.989 137.3 405.33C137.485 405.67 137.741 405.943 138.067 406.148C138.393 406.352 138.762 406.455 139.175 406.455ZM149.101 408.222C148.165 408.222 147.362 407.985 146.692 407.511C146.025 407.034 145.512 406.347 145.152 405.449C144.796 404.547 144.618 403.462 144.618 402.193C144.622 400.924 144.802 399.845 145.158 398.955C145.518 398.061 146.031 397.379 146.697 396.909C147.368 396.439 148.169 396.205 149.101 396.205C150.033 396.205 150.834 396.439 151.504 396.909C152.175 397.379 152.688 398.061 153.044 398.955C153.404 399.848 153.584 400.928 153.584 402.193C153.584 403.466 153.404 404.553 153.044 405.455C152.688 406.352 152.175 407.038 151.504 407.511C150.838 407.985 150.036 408.222 149.101 408.222ZM149.101 406.443C149.828 406.443 150.402 406.085 150.822 405.369C151.247 404.65 151.459 403.591 151.459 402.193C151.459 401.269 151.362 400.492 151.169 399.864C150.976 399.235 150.703 398.761 150.351 398.443C149.999 398.121 149.582 397.96 149.101 397.96C148.377 397.96 147.805 398.32 147.385 399.04C146.964 399.756 146.752 400.807 146.749 402.193C146.745 403.121 146.838 403.902 147.027 404.534C147.22 405.167 147.493 405.644 147.845 405.966C148.197 406.284 148.616 406.443 149.101 406.443ZM156.956 406.409L156.882 407.034C156.829 407.511 156.734 407.996 156.598 408.489C156.465 408.985 156.325 409.441 156.178 409.858C156.03 410.275 155.911 410.602 155.82 410.841H154.433C154.486 410.61 154.558 410.295 154.649 409.898C154.744 409.5 154.835 409.053 154.922 408.557C155.009 408.061 155.068 407.557 155.098 407.045L155.138 406.409H156.956ZM162.585 408.222C161.65 408.222 160.847 407.985 160.176 407.511C159.509 407.034 158.996 406.347 158.636 405.449C158.28 404.547 158.102 403.462 158.102 402.193C158.106 400.924 158.286 399.845 158.642 398.955C159.002 398.061 159.515 397.379 160.182 396.909C160.852 396.439 161.653 396.205 162.585 396.205C163.517 396.205 164.318 396.439 164.989 396.909C165.659 397.379 166.172 398.061 166.528 398.955C166.888 399.848 167.068 400.928 167.068 402.193C167.068 403.466 166.888 404.553 166.528 405.455C166.172 406.352 165.659 407.038 164.989 407.511C164.322 407.985 163.521 408.222 162.585 408.222ZM162.585 406.443C163.313 406.443 163.886 406.085 164.307 405.369C164.731 404.65 164.943 403.591 164.943 402.193C164.943 401.269 164.847 400.492 164.653 399.864C164.46 399.235 164.188 398.761 163.835 398.443C163.483 398.121 163.066 397.96 162.585 397.96C161.862 397.96 161.29 398.32 160.869 399.04C160.449 399.756 160.237 400.807 160.233 402.193C160.229 403.121 160.322 403.902 160.511 404.534C160.705 405.167 160.977 405.644 161.33 405.966C161.682 406.284 162.1 406.443 162.585 406.443ZM172.757 408.222C171.821 408.222 171.018 407.985 170.348 407.511C169.681 407.034 169.168 406.347 168.808 405.449C168.452 404.547 168.274 403.462 168.274 402.193C168.278 400.924 168.458 399.845 168.814 398.955C169.174 398.061 169.687 397.379 170.354 396.909C171.024 396.439 171.825 396.205 172.757 396.205C173.689 396.205 174.49 396.439 175.161 396.909C175.831 397.379 176.344 398.061 176.7 398.955C177.06 399.848 177.24 400.928 177.24 402.193C177.24 403.466 177.06 404.553 176.7 405.455C176.344 406.352 175.831 407.038 175.161 407.511C174.494 407.985 173.693 408.222 172.757 408.222ZM172.757 406.443C173.484 406.443 174.058 406.085 174.479 405.369C174.903 404.65 175.115 403.591 175.115 402.193C175.115 401.269 175.018 400.492 174.825 399.864C174.632 399.235 174.359 398.761 174.007 398.443C173.655 398.121 173.238 397.96 172.757 397.96C172.034 397.96 171.462 398.32 171.041 399.04C170.621 399.756 170.409 400.807 170.405 402.193C170.401 403.121 170.494 403.902 170.683 404.534C170.876 405.167 171.149 405.644 171.501 405.966C171.854 406.284 172.272 406.443 172.757 406.443ZM182.929 408.222C181.993 408.222 181.19 407.985 180.52 407.511C179.853 407.034 179.34 406.347 178.98 405.449C178.624 404.547 178.446 403.462 178.446 402.193C178.45 400.924 178.63 399.845 178.986 398.955C179.346 398.061 179.859 397.379 180.526 396.909C181.196 396.439 181.997 396.205 182.929 396.205C183.861 396.205 184.662 396.439 185.332 396.909C186.003 397.379 186.516 398.061 186.872 398.955C187.232 399.848 187.412 400.928 187.412 402.193C187.412 403.466 187.232 404.553 186.872 405.455C186.516 406.352 186.003 407.038 185.332 407.511C184.666 407.985 183.865 408.222 182.929 408.222ZM182.929 406.443C183.656 406.443 184.23 406.085 184.651 405.369C185.075 404.65 185.287 403.591 185.287 402.193C185.287 401.269 185.19 400.492 184.997 399.864C184.804 399.235 184.531 398.761 184.179 398.443C183.827 398.121 183.41 397.96 182.929 397.96C182.205 397.96 181.634 398.32 181.213 399.04C180.793 399.756 180.58 400.807 180.577 402.193C180.573 403.121 180.666 403.902 180.855 404.534C181.048 405.167 181.321 405.644 181.673 405.966C182.026 406.284 182.444 406.443 182.929 406.443Z" fill="black"/>
<path d="M196.074 407V399.364H197.207V400.517H197.287C197.426 400.139 197.678 399.833 198.043 399.597C198.407 399.362 198.818 399.244 199.276 399.244C199.362 399.244 199.469 399.246 199.599 399.249C199.728 399.253 199.826 399.258 199.892 399.264V400.457C199.852 400.447 199.761 400.433 199.619 400.413C199.479 400.389 199.332 400.378 199.176 400.378C198.805 400.378 198.473 400.456 198.182 400.612C197.893 400.764 197.665 400.976 197.496 401.248C197.33 401.516 197.247 401.823 197.247 402.168V407H196.074ZM203.03 407.179C202.546 407.179 202.107 407.088 201.713 406.906C201.318 406.72 201.005 406.453 200.773 406.105C200.541 405.754 200.425 405.33 200.425 404.832C200.425 404.395 200.511 404.04 200.683 403.768C200.856 403.493 201.086 403.278 201.374 403.122C201.663 402.966 201.981 402.85 202.329 402.774C202.68 402.695 203.033 402.632 203.388 402.585C203.852 402.526 204.228 402.481 204.517 402.451C204.808 402.418 205.02 402.363 205.153 402.287C205.289 402.211 205.357 402.078 205.357 401.889V401.849C205.357 401.359 205.222 400.978 204.954 400.706C204.689 400.434 204.286 400.298 203.746 400.298C203.186 400.298 202.747 400.421 202.428 400.666C202.11 400.911 201.887 401.173 201.757 401.452L200.644 401.054C200.843 400.59 201.108 400.229 201.439 399.97C201.774 399.708 202.138 399.526 202.533 399.423C202.931 399.317 203.322 399.264 203.706 399.264C203.951 399.264 204.233 399.294 204.551 399.354C204.873 399.41 205.183 399.528 205.481 399.707C205.783 399.886 206.033 400.156 206.232 400.517C206.431 400.878 206.53 401.362 206.53 401.969V407H205.357V405.966H205.297C205.218 406.132 205.085 406.309 204.899 406.498C204.714 406.687 204.467 406.848 204.159 406.98C203.85 407.113 203.474 407.179 203.03 407.179ZM203.209 406.125C203.673 406.125 204.064 406.034 204.382 405.852C204.704 405.669 204.946 405.434 205.108 405.146C205.274 404.857 205.357 404.554 205.357 404.236V403.162C205.307 403.222 205.198 403.276 205.029 403.326C204.863 403.372 204.671 403.414 204.452 403.45C204.236 403.483 204.026 403.513 203.82 403.54C203.618 403.563 203.454 403.583 203.328 403.599C203.023 403.639 202.738 403.704 202.473 403.793C202.211 403.879 201.999 404.01 201.837 404.186C201.678 404.358 201.598 404.594 201.598 404.892C201.598 405.3 201.749 405.608 202.051 405.817C202.356 406.022 202.742 406.125 203.209 406.125ZM208.172 407V399.364H209.345V407H208.172ZM208.768 398.091C208.539 398.091 208.342 398.013 208.176 397.857C208.014 397.701 207.933 397.514 207.933 397.295C207.933 397.077 208.014 396.889 208.176 396.734C208.342 396.578 208.539 396.5 208.768 396.5C208.997 396.5 209.192 396.578 209.355 396.734C209.52 396.889 209.603 397.077 209.603 397.295C209.603 397.514 209.52 397.701 209.355 397.857C209.192 398.013 208.997 398.091 208.768 398.091ZM216.403 401.074L215.349 401.372C215.283 401.196 215.185 401.026 215.056 400.86C214.93 400.691 214.757 400.552 214.539 400.442C214.32 400.333 214.04 400.278 213.698 400.278C213.231 400.278 212.842 400.386 212.53 400.602C212.222 400.814 212.068 401.084 212.068 401.412C212.068 401.704 212.174 401.934 212.386 402.103C212.598 402.272 212.929 402.413 213.38 402.526L214.514 402.804C215.196 402.97 215.705 403.223 216.04 403.565C216.375 403.903 216.542 404.339 216.542 404.872C216.542 405.31 216.416 405.701 216.164 406.045C215.916 406.39 215.568 406.662 215.12 406.861C214.673 407.06 214.152 407.159 213.559 407.159C212.78 407.159 212.136 406.99 211.625 406.652C211.115 406.314 210.792 405.82 210.656 405.17L211.769 404.892C211.875 405.303 212.076 405.611 212.371 405.817C212.669 406.022 213.059 406.125 213.539 406.125C214.086 406.125 214.52 406.009 214.842 405.777C215.167 405.542 215.329 405.26 215.329 404.932C215.329 404.667 215.236 404.445 215.051 404.266C214.865 404.083 214.58 403.947 214.195 403.858L212.923 403.56C212.223 403.394 211.71 403.137 211.382 402.789C211.057 402.438 210.894 401.999 210.894 401.472C210.894 401.041 211.015 400.66 211.257 400.328C211.503 399.997 211.836 399.737 212.257 399.548C212.681 399.359 213.161 399.264 213.698 399.264C214.454 399.264 215.047 399.43 215.478 399.761C215.912 400.093 216.221 400.53 216.403 401.074ZM221.01 407.159C220.274 407.159 219.639 406.997 219.106 406.672C218.576 406.344 218.166 405.886 217.878 405.3C217.593 404.71 217.45 404.024 217.45 403.241C217.45 402.459 217.593 401.77 217.878 401.173C218.166 400.573 218.567 400.106 219.081 399.771C219.598 399.433 220.201 399.264 220.891 399.264C221.288 399.264 221.681 399.33 222.069 399.463C222.457 399.596 222.81 399.811 223.128 400.109C223.446 400.404 223.7 400.795 223.888 401.283C224.077 401.77 224.172 402.37 224.172 403.082V403.58H218.286V402.565H222.979C222.979 402.134 222.893 401.75 222.72 401.412C222.551 401.074 222.309 400.807 221.994 400.612C221.683 400.416 221.315 400.318 220.891 400.318C220.423 400.318 220.019 400.434 219.678 400.666C219.339 400.895 219.079 401.193 218.897 401.561C218.715 401.929 218.624 402.323 218.624 402.744V403.42C218.624 403.997 218.723 404.486 218.922 404.887C219.124 405.285 219.404 405.588 219.762 405.797C220.12 406.002 220.536 406.105 221.01 406.105C221.318 406.105 221.597 406.062 221.845 405.976C222.097 405.886 222.314 405.754 222.496 405.578C222.679 405.399 222.82 405.177 222.919 404.912L224.053 405.23C223.933 405.615 223.733 405.953 223.451 406.244C223.169 406.533 222.821 406.758 222.407 406.92C221.993 407.08 221.527 407.159 221.01 407.159ZM228.34 407.159C227.704 407.159 227.142 406.998 226.655 406.677C226.168 406.352 225.786 405.895 225.511 405.305C225.236 404.711 225.099 404.01 225.099 403.202C225.099 402.4 225.236 401.704 225.511 401.114C225.786 400.524 226.169 400.068 226.66 399.746C227.15 399.425 227.717 399.264 228.36 399.264C228.857 399.264 229.25 399.347 229.538 399.513C229.83 399.675 230.052 399.861 230.205 400.07C230.36 400.275 230.481 400.444 230.567 400.577H230.667V396.818H231.84V407H230.707V405.827H230.567C230.481 405.966 230.359 406.142 230.2 406.354C230.04 406.562 229.813 406.75 229.518 406.915C229.223 407.078 228.831 407.159 228.34 407.159ZM228.499 406.105C228.97 406.105 229.368 405.982 229.692 405.737C230.017 405.489 230.264 405.146 230.433 404.708C230.602 404.267 230.687 403.759 230.687 403.182C230.687 402.612 230.604 402.113 230.438 401.685C230.272 401.254 230.027 400.92 229.702 400.681C229.378 400.439 228.977 400.318 228.499 400.318C228.002 400.318 227.588 400.446 227.256 400.701C226.928 400.953 226.681 401.296 226.516 401.73C226.353 402.161 226.272 402.645 226.272 403.182C226.272 403.725 226.355 404.219 226.521 404.663C226.69 405.104 226.938 405.455 227.266 405.717C227.598 405.976 228.009 406.105 228.499 406.105ZM240.192 407.159C239.502 407.159 238.897 406.995 238.377 406.667C237.86 406.339 237.456 405.88 237.164 405.29C236.876 404.7 236.732 404.01 236.732 403.222C236.732 402.426 236.876 401.732 237.164 401.138C237.456 400.545 237.86 400.085 238.377 399.756C238.897 399.428 239.502 399.264 240.192 399.264C240.881 399.264 241.484 399.428 242.001 399.756C242.522 400.085 242.926 400.545 243.214 401.138C243.506 401.732 243.652 402.426 243.652 403.222C243.652 404.01 243.506 404.7 243.214 405.29C242.926 405.88 242.522 406.339 242.001 406.667C241.484 406.995 240.881 407.159 240.192 407.159ZM240.192 406.105C240.715 406.105 241.146 405.971 241.484 405.702C241.822 405.434 242.073 405.081 242.235 404.643C242.397 404.206 242.479 403.732 242.479 403.222C242.479 402.711 242.397 402.236 242.235 401.795C242.073 401.354 241.822 400.998 241.484 400.726C241.146 400.454 240.715 400.318 240.192 400.318C239.668 400.318 239.237 400.454 238.899 400.726C238.561 400.998 238.311 401.354 238.148 401.795C237.986 402.236 237.905 402.711 237.905 403.222C237.905 403.732 237.986 404.206 238.148 404.643C238.311 405.081 238.561 405.434 238.899 405.702C239.237 405.971 239.668 406.105 240.192 406.105ZM248.344 399.364V400.358H244.227V399.364H248.344ZM245.46 407V398.31C245.46 397.872 245.563 397.508 245.768 397.216C245.974 396.924 246.241 396.705 246.569 396.56C246.897 396.414 247.243 396.341 247.608 396.341C247.896 396.341 248.131 396.364 248.314 396.411C248.496 396.457 248.632 396.5 248.721 396.54L248.383 397.554C248.324 397.534 248.241 397.509 248.135 397.479C248.032 397.45 247.896 397.435 247.727 397.435C247.339 397.435 247.059 397.532 246.887 397.728C246.718 397.924 246.633 398.21 246.633 398.588V407H245.46ZM255.908 408.273V395.545H256.724V408.273H255.908ZM258.653 399.364C258.593 398.86 258.351 398.469 257.927 398.19C257.503 397.912 256.982 397.773 256.366 397.773C255.915 397.773 255.521 397.846 255.183 397.991C254.848 398.137 254.586 398.338 254.397 398.593C254.211 398.848 254.119 399.138 254.119 399.463C254.119 399.735 254.183 399.969 254.312 400.164C254.445 400.356 254.614 400.517 254.82 400.646C255.025 400.772 255.241 400.877 255.466 400.96C255.691 401.039 255.898 401.104 256.087 401.153L257.121 401.432C257.387 401.501 257.682 401.598 258.006 401.72C258.335 401.843 258.648 402.01 258.946 402.222C259.248 402.431 259.496 402.7 259.692 403.028C259.887 403.356 259.985 403.759 259.985 404.236C259.985 404.786 259.841 405.283 259.553 405.727C259.268 406.171 258.85 406.524 258.3 406.786C257.753 407.048 257.088 407.179 256.306 407.179C255.577 407.179 254.946 407.061 254.412 406.826C253.882 406.591 253.464 406.263 253.159 405.842C252.857 405.421 252.687 404.932 252.647 404.375H253.92C253.953 404.759 254.082 405.078 254.308 405.33C254.536 405.578 254.825 405.764 255.173 405.886C255.524 406.006 255.902 406.065 256.306 406.065C256.777 406.065 257.199 405.989 257.574 405.837C257.948 405.681 258.245 405.465 258.464 405.19C258.683 404.912 258.792 404.587 258.792 404.216C258.792 403.878 258.697 403.603 258.509 403.391C258.32 403.179 258.071 403.006 257.763 402.874C257.455 402.741 257.121 402.625 256.763 402.526L255.511 402.168C254.715 401.939 254.085 401.612 253.621 401.188C253.157 400.764 252.925 400.209 252.925 399.523C252.925 398.953 253.08 398.455 253.388 398.031C253.699 397.604 254.117 397.272 254.641 397.037C255.168 396.798 255.756 396.679 256.406 396.679C257.062 396.679 257.645 396.797 258.156 397.032C258.666 397.264 259.07 397.582 259.369 397.987C259.67 398.391 259.829 398.85 259.846 399.364H258.653ZM264.913 396.818V407H263.68V398.111H263.62L261.134 399.761V398.509L263.68 396.818H264.913ZM270.662 407.139C269.913 407.139 269.275 406.935 268.748 406.528C268.221 406.117 267.818 405.522 267.54 404.743C267.262 403.961 267.122 403.016 267.122 401.909C267.122 400.809 267.262 399.869 267.54 399.09C267.822 398.308 268.226 397.711 268.753 397.3C269.283 396.886 269.92 396.679 270.662 396.679C271.405 396.679 272.039 396.886 272.566 397.3C273.097 397.711 273.501 398.308 273.779 399.09C274.061 399.869 274.202 400.809 274.202 401.909C274.202 403.016 274.063 403.961 273.784 404.743C273.506 405.522 273.103 406.117 272.576 406.528C272.049 406.935 271.411 407.139 270.662 407.139ZM270.662 406.045C271.405 406.045 271.981 405.687 272.392 404.972C272.803 404.256 273.009 403.235 273.009 401.909C273.009 401.027 272.914 400.277 272.725 399.657C272.54 399.037 272.271 398.565 271.92 398.24C271.572 397.915 271.153 397.753 270.662 397.753C269.926 397.753 269.351 398.116 268.937 398.842C268.523 399.564 268.316 400.587 268.316 401.909C268.316 402.791 268.408 403.54 268.594 404.156C268.78 404.773 269.046 405.242 269.394 405.563C269.746 405.885 270.168 406.045 270.662 406.045ZM278.912 407.139C278.163 407.139 277.525 406.935 276.998 406.528C276.471 406.117 276.068 405.522 275.79 404.743C275.512 403.961 275.372 403.016 275.372 401.909C275.372 400.809 275.512 399.869 275.79 399.09C276.072 398.308 276.476 397.711 277.003 397.3C277.533 396.886 278.17 396.679 278.912 396.679C279.655 396.679 280.289 396.886 280.816 397.3C281.347 397.711 281.751 398.308 282.029 399.09C282.311 399.869 282.452 400.809 282.452 401.909C282.452 403.016 282.313 403.961 282.034 404.743C281.756 405.522 281.353 406.117 280.826 406.528C280.299 406.935 279.661 407.139 278.912 407.139ZM278.912 406.045C279.655 406.045 280.231 405.687 280.642 404.972C281.053 404.256 281.259 403.235 281.259 401.909C281.259 401.027 281.164 400.277 280.975 399.657C280.79 399.037 280.521 398.565 280.17 398.24C279.822 397.915 279.403 397.753 278.912 397.753C278.176 397.753 277.601 398.116 277.187 398.842C276.773 399.564 276.566 400.587 276.566 401.909C276.566 402.791 276.658 403.54 276.844 404.156C277.03 404.773 277.296 405.242 277.644 405.563C277.996 405.885 278.418 406.045 278.912 406.045ZM285.256 405.608L285.176 406.145C285.12 406.523 285.033 406.927 284.917 407.358C284.805 407.789 284.687 408.195 284.564 408.576C284.442 408.957 284.341 409.26 284.261 409.486H283.366C283.409 409.274 283.466 408.994 283.535 408.646C283.605 408.298 283.675 407.908 283.744 407.477C283.817 407.05 283.877 406.612 283.923 406.165L283.983 405.608H285.256ZM289.875 407.139C289.126 407.139 288.488 406.935 287.961 406.528C287.434 406.117 287.031 405.522 286.753 404.743C286.474 403.961 286.335 403.016 286.335 401.909C286.335 400.809 286.474 399.869 286.753 399.09C287.035 398.308 287.439 397.711 287.966 397.3C288.496 396.886 289.133 396.679 289.875 396.679C290.617 396.679 291.252 396.886 291.779 397.3C292.309 397.711 292.714 398.308 292.992 399.09C293.274 399.869 293.415 400.809 293.415 401.909C293.415 403.016 293.276 403.961 292.997 404.743C292.719 405.522 292.316 406.117 291.789 406.528C291.262 406.935 290.624 407.139 289.875 407.139ZM289.875 406.045C290.617 406.045 291.194 405.687 291.605 404.972C292.016 404.256 292.222 403.235 292.222 401.909C292.222 401.027 292.127 400.277 291.938 399.657C291.753 399.037 291.484 398.565 291.133 398.24C290.785 397.915 290.366 397.753 289.875 397.753C289.139 397.753 288.564 398.116 288.15 398.842C287.736 399.564 287.528 400.587 287.528 401.909C287.528 402.791 287.621 403.54 287.807 404.156C287.992 404.773 288.259 405.242 288.607 405.563C288.959 405.885 289.381 406.045 289.875 406.045ZM298.125 407.139C297.376 407.139 296.738 406.935 296.211 406.528C295.684 406.117 295.281 405.522 295.003 404.743C294.724 403.961 294.585 403.016 294.585 401.909C294.585 400.809 294.724 399.869 295.003 399.09C295.285 398.308 295.689 397.711 296.216 397.3C296.746 396.886 297.383 396.679 298.125 396.679C298.867 396.679 299.502 396.886 300.029 397.3C300.559 397.711 300.964 398.308 301.242 399.09C301.524 399.869 301.665 400.809 301.665 401.909C301.665 403.016 301.526 403.961 301.247 404.743C300.969 405.522 300.566 406.117 300.039 406.528C299.512 406.935 298.874 407.139 298.125 407.139ZM298.125 406.045C298.867 406.045 299.444 405.687 299.855 404.972C300.266 404.256 300.472 403.235 300.472 401.909C300.472 401.027 300.377 400.277 300.188 399.657C300.003 399.037 299.734 398.565 299.383 398.24C299.035 397.915 298.616 397.753 298.125 397.753C297.389 397.753 296.814 398.116 296.4 398.842C295.986 399.564 295.778 400.587 295.778 401.909C295.778 402.791 295.871 403.54 296.057 404.156C296.242 404.773 296.509 405.242 296.857 405.563C297.209 405.885 297.631 406.045 298.125 406.045ZM306.375 407.139C305.626 407.139 304.988 406.935 304.461 406.528C303.934 406.117 303.531 405.522 303.253 404.743C302.974 403.961 302.835 403.016 302.835 401.909C302.835 400.809 302.974 399.869 303.253 399.09C303.535 398.308 303.939 397.711 304.466 397.3C304.996 396.886 305.633 396.679 306.375 396.679C307.117 396.679 307.752 396.886 308.279 397.3C308.809 397.711 309.214 398.308 309.492 399.09C309.774 399.869 309.915 400.809 309.915 401.909C309.915 403.016 309.776 403.961 309.497 404.743C309.219 405.522 308.816 406.117 308.289 406.528C307.762 406.935 307.124 407.139 306.375 407.139ZM306.375 406.045C307.117 406.045 307.694 405.687 308.105 404.972C308.516 404.256 308.722 403.235 308.722 401.909C308.722 401.027 308.627 400.277 308.438 399.657C308.253 399.037 307.984 398.565 307.633 398.24C307.285 397.915 306.866 397.753 306.375 397.753C305.639 397.753 305.064 398.116 304.65 398.842C304.236 399.564 304.028 400.587 304.028 401.909C304.028 402.791 304.121 403.54 304.307 404.156C304.492 404.773 304.759 405.242 305.107 405.563C305.459 405.885 305.881 406.045 306.375 406.045ZM317.844 410.023C317.277 410.023 316.79 409.95 316.382 409.804C315.974 409.661 315.635 409.473 315.363 409.237C315.094 409.005 314.881 408.757 314.722 408.491L315.656 407.835C315.762 407.974 315.897 408.134 316.059 408.312C316.221 408.495 316.443 408.652 316.725 408.785C317.01 408.921 317.383 408.989 317.844 408.989C318.46 408.989 318.969 408.839 319.37 408.541C319.771 408.243 319.972 407.776 319.972 407.139V405.588H319.872C319.786 405.727 319.663 405.9 319.504 406.105C319.348 406.307 319.123 406.488 318.828 406.647C318.536 406.803 318.142 406.881 317.645 406.881C317.028 406.881 316.475 406.735 315.984 406.443C315.497 406.152 315.111 405.727 314.826 405.17C314.544 404.614 314.403 403.937 314.403 403.142C314.403 402.36 314.541 401.679 314.816 401.099C315.091 400.515 315.474 400.065 315.964 399.746C316.455 399.425 317.022 399.264 317.665 399.264C318.162 399.264 318.556 399.347 318.848 399.513C319.143 399.675 319.368 399.861 319.524 400.07C319.683 400.275 319.806 400.444 319.892 400.577H320.011V399.364H321.145V407.219C321.145 407.875 320.996 408.409 320.697 408.82C320.402 409.234 320.005 409.537 319.504 409.729C319.007 409.925 318.454 410.023 317.844 410.023ZM317.804 405.827C318.275 405.827 318.672 405.719 318.997 405.504C319.322 405.288 319.569 404.978 319.738 404.574C319.907 404.17 319.991 403.686 319.991 403.122C319.991 402.572 319.909 402.086 319.743 401.665C319.577 401.245 319.332 400.915 319.007 400.676C318.682 400.437 318.281 400.318 317.804 400.318C317.307 400.318 316.893 400.444 316.561 400.696C316.233 400.948 315.986 401.286 315.82 401.71C315.658 402.134 315.577 402.605 315.577 403.122C315.577 403.652 315.66 404.121 315.825 404.529C315.994 404.933 316.243 405.252 316.571 405.484C316.902 405.712 317.313 405.827 317.804 405.827ZM325.895 407.159C325.205 407.159 324.601 406.995 324.08 406.667C323.563 406.339 323.159 405.88 322.867 405.29C322.579 404.7 322.435 404.01 322.435 403.222C322.435 402.426 322.579 401.732 322.867 401.138C323.159 400.545 323.563 400.085 324.08 399.756C324.601 399.428 325.205 399.264 325.895 399.264C326.584 399.264 327.188 399.428 327.705 399.756C328.225 400.085 328.629 400.545 328.918 401.138C329.209 401.732 329.355 402.426 329.355 403.222C329.355 404.01 329.209 404.7 328.918 405.29C328.629 405.88 328.225 406.339 327.705 406.667C327.188 406.995 326.584 407.159 325.895 407.159ZM325.895 406.105C326.419 406.105 326.849 405.971 327.188 405.702C327.526 405.434 327.776 405.081 327.938 404.643C328.101 404.206 328.182 403.732 328.182 403.222C328.182 402.711 328.101 402.236 327.938 401.795C327.776 401.354 327.526 400.998 327.188 400.726C326.849 400.454 326.419 400.318 325.895 400.318C325.371 400.318 324.94 400.454 324.602 400.726C324.264 400.998 324.014 401.354 323.852 401.795C323.689 402.236 323.608 402.711 323.608 403.222C323.608 403.732 323.689 404.206 323.852 404.643C324.014 405.081 324.264 405.434 324.602 405.702C324.94 405.971 325.371 406.105 325.895 406.105ZM332.893 407.179C332.409 407.179 331.97 407.088 331.576 406.906C331.181 406.72 330.868 406.453 330.636 406.105C330.404 405.754 330.288 405.33 330.288 404.832C330.288 404.395 330.374 404.04 330.547 403.768C330.719 403.493 330.949 403.278 331.238 403.122C331.526 402.966 331.844 402.85 332.192 402.774C332.544 402.695 332.897 402.632 333.251 402.585C333.715 402.526 334.091 402.481 334.38 402.451C334.671 402.418 334.884 402.363 335.016 402.287C335.152 402.211 335.22 402.078 335.22 401.889V401.849C335.22 401.359 335.086 400.978 334.817 400.706C334.552 400.434 334.149 400.298 333.609 400.298C333.049 400.298 332.61 400.421 332.292 400.666C331.974 400.911 331.75 401.173 331.621 401.452L330.507 401.054C330.706 400.59 330.971 400.229 331.302 399.97C331.637 399.708 332.002 399.526 332.396 399.423C332.794 399.317 333.185 399.264 333.569 399.264C333.815 399.264 334.096 399.294 334.415 399.354C334.736 399.41 335.046 399.528 335.344 399.707C335.646 399.886 335.896 400.156 336.095 400.517C336.294 400.878 336.393 401.362 336.393 401.969V407H335.22V405.966H335.16C335.081 406.132 334.948 406.309 334.763 406.498C334.577 406.687 334.33 406.848 334.022 406.98C333.714 407.113 333.337 407.179 332.893 407.179ZM333.072 406.125C333.536 406.125 333.927 406.034 334.246 405.852C334.567 405.669 334.809 405.434 334.971 405.146C335.137 404.857 335.22 404.554 335.22 404.236V403.162C335.17 403.222 335.061 403.276 334.892 403.326C334.726 403.372 334.534 403.414 334.315 403.45C334.1 403.483 333.889 403.513 333.684 403.54C333.482 403.563 333.318 403.583 333.192 403.599C332.887 403.639 332.602 403.704 332.336 403.793C332.075 403.879 331.863 404.01 331.7 404.186C331.541 404.358 331.461 404.594 331.461 404.892C331.461 405.3 331.612 405.608 331.914 405.817C332.219 406.022 332.605 406.125 333.072 406.125ZM339.208 396.818V407H338.035V396.818H339.208Z" fill="black"/>
<rect x="124" y="422" width="358" height="12" rx="6" fill="#F3E9D8"/>
<rect x="124.5" y="422.5" width="230" height="11" rx="5.5" fill="#7CE993" stroke="black"/>
<path d="M128.057 457.71V451.148H129.17V457.71H128.057ZM125.332 454.986V453.872H131.895V454.986H125.332ZM133.304 459.5V458.605L136.665 454.926C137.059 454.495 137.384 454.121 137.639 453.803C137.894 453.481 138.083 453.179 138.206 452.898C138.332 452.613 138.395 452.314 138.395 452.003C138.395 451.645 138.309 451.335 138.136 451.073C137.967 450.811 137.735 450.609 137.44 450.467C137.145 450.324 136.814 450.253 136.446 450.253C136.055 450.253 135.714 450.334 135.422 450.496C135.134 450.656 134.91 450.879 134.751 451.168C134.595 451.456 134.517 451.794 134.517 452.182H133.344C133.344 451.585 133.481 451.062 133.756 450.611C134.031 450.16 134.406 449.809 134.88 449.557C135.357 449.305 135.893 449.179 136.486 449.179C137.082 449.179 137.611 449.305 138.072 449.557C138.532 449.809 138.894 450.148 139.156 450.576C139.417 451.004 139.548 451.479 139.548 452.003C139.548 452.377 139.48 452.744 139.344 453.102C139.212 453.456 138.98 453.852 138.648 454.29C138.32 454.724 137.865 455.254 137.281 455.881L134.994 458.327V458.406H139.727V459.5H133.304ZM142.156 459.58C141.91 459.58 141.7 459.492 141.524 459.316C141.348 459.14 141.261 458.93 141.261 458.685C141.261 458.439 141.348 458.229 141.524 458.053C141.7 457.878 141.91 457.79 142.156 457.79C142.401 457.79 142.611 457.878 142.787 458.053C142.963 458.229 143.05 458.439 143.05 458.685C143.05 458.847 143.009 458.996 142.926 459.132C142.847 459.268 142.739 459.377 142.603 459.46C142.47 459.54 142.321 459.58 142.156 459.58ZM147.602 459.639C146.853 459.639 146.214 459.435 145.688 459.028C145.161 458.617 144.758 458.022 144.479 457.243C144.201 456.461 144.062 455.516 144.062 454.409C144.062 453.309 144.201 452.369 144.479 451.59C144.761 450.808 145.165 450.211 145.692 449.8C146.223 449.386 146.859 449.179 147.602 449.179C148.344 449.179 148.979 449.386 149.506 449.8C150.036 450.211 150.44 450.808 150.719 451.59C151 452.369 151.141 453.309 151.141 454.409C151.141 455.516 151.002 456.461 150.724 457.243C150.445 458.022 150.043 458.617 149.516 459.028C148.989 459.435 148.351 459.639 147.602 459.639ZM147.602 458.545C148.344 458.545 148.921 458.187 149.332 457.472C149.743 456.756 149.948 455.735 149.948 454.409C149.948 453.527 149.854 452.777 149.665 452.157C149.479 451.537 149.211 451.065 148.859 450.74C148.511 450.415 148.092 450.253 147.602 450.253C146.866 450.253 146.291 450.616 145.876 451.342C145.462 452.064 145.255 453.087 145.255 454.409C145.255 455.291 145.348 456.04 145.533 456.656C145.719 457.273 145.986 457.742 146.334 458.063C146.685 458.385 147.108 458.545 147.602 458.545ZM155.772 449.179C156.19 449.182 156.607 449.262 157.025 449.418C157.442 449.573 157.824 449.832 158.168 450.193C158.513 450.551 158.79 451.04 158.999 451.66C159.207 452.28 159.312 453.057 159.312 453.991C159.312 454.896 159.226 455.7 159.053 456.403C158.884 457.102 158.639 457.692 158.317 458.173C157.999 458.653 157.612 459.018 157.154 459.266C156.7 459.515 156.186 459.639 155.613 459.639C155.043 459.639 154.534 459.527 154.087 459.301C153.643 459.072 153.278 458.756 152.993 458.352C152.711 457.944 152.531 457.472 152.451 456.935H153.664C153.773 457.402 153.991 457.788 154.315 458.093C154.643 458.395 155.076 458.545 155.613 458.545C156.398 458.545 157.018 458.202 157.472 457.516C157.93 456.83 158.158 455.861 158.158 454.608H158.079C157.893 454.886 157.673 455.127 157.418 455.329C157.162 455.531 156.879 455.687 156.567 455.796C156.256 455.906 155.924 455.96 155.573 455.96C154.99 455.96 154.455 455.816 153.967 455.528C153.483 455.236 153.096 454.837 152.804 454.33C152.516 453.819 152.371 453.236 152.371 452.58C152.371 451.956 152.511 451.386 152.789 450.869C153.071 450.349 153.465 449.935 153.972 449.626C154.483 449.318 155.083 449.169 155.772 449.179ZM155.772 450.273C155.354 450.273 154.978 450.377 154.643 450.586C154.312 450.791 154.049 451.07 153.853 451.421C153.661 451.769 153.565 452.155 153.565 452.58C153.565 453.004 153.657 453.39 153.843 453.738C154.032 454.083 154.289 454.358 154.614 454.563C154.942 454.765 155.315 454.866 155.732 454.866C156.047 454.866 156.34 454.805 156.612 454.683C156.884 454.557 157.121 454.386 157.323 454.17C157.529 453.952 157.689 453.705 157.805 453.43C157.921 453.151 157.979 452.861 157.979 452.56C157.979 452.162 157.883 451.789 157.691 451.441C157.502 451.093 157.24 450.811 156.906 450.596C156.574 450.38 156.196 450.273 155.772 450.273ZM160.528 457.412V456.398L165.003 449.318H165.738V450.889H165.241L161.861 456.239V456.318H167.886V457.412H160.528ZM165.321 459.5V457.104V456.631V449.318H166.494V459.5H165.321ZM175.59 459.659C174.954 459.659 174.392 459.498 173.905 459.177C173.418 458.852 173.036 458.395 172.761 457.805C172.486 457.211 172.349 456.51 172.349 455.702C172.349 454.9 172.486 454.204 172.761 453.614C173.036 453.024 173.419 452.568 173.91 452.246C174.4 451.925 174.967 451.764 175.61 451.764C176.107 451.764 176.5 451.847 176.788 452.013C177.08 452.175 177.302 452.361 177.455 452.57C177.61 452.775 177.731 452.944 177.817 453.077H177.917V449.318H179.09V459.5H177.957V458.327H177.817C177.731 458.466 177.609 458.642 177.45 458.854C177.29 459.062 177.063 459.25 176.768 459.415C176.473 459.578 176.081 459.659 175.59 459.659ZM175.749 458.605C176.22 458.605 176.618 458.482 176.942 458.237C177.267 457.989 177.514 457.646 177.683 457.208C177.852 456.767 177.937 456.259 177.937 455.682C177.937 455.112 177.854 454.613 177.688 454.185C177.522 453.754 177.277 453.42 176.952 453.181C176.628 452.939 176.227 452.818 175.749 452.818C175.252 452.818 174.838 452.946 174.506 453.201C174.178 453.453 173.931 453.796 173.766 454.23C173.603 454.661 173.522 455.145 173.522 455.682C173.522 456.225 173.605 456.719 173.771 457.163C173.94 457.604 174.188 457.955 174.516 458.217C174.848 458.476 175.259 458.605 175.749 458.605ZM184.004 459.659C183.315 459.659 182.71 459.495 182.19 459.167C181.673 458.839 181.268 458.38 180.977 457.79C180.688 457.2 180.544 456.51 180.544 455.722C180.544 454.926 180.688 454.232 180.977 453.638C181.268 453.045 181.673 452.585 182.19 452.256C182.71 451.928 183.315 451.764 184.004 451.764C184.694 451.764 185.297 451.928 185.814 452.256C186.334 452.585 186.739 453.045 187.027 453.638C187.319 454.232 187.464 454.926 187.464 455.722C187.464 456.51 187.319 457.2 187.027 457.79C186.739 458.38 186.334 458.839 185.814 459.167C185.297 459.495 184.694 459.659 184.004 459.659ZM184.004 458.605C184.528 458.605 184.959 458.471 185.297 458.202C185.635 457.934 185.885 457.581 186.048 457.143C186.21 456.706 186.291 456.232 186.291 455.722C186.291 455.211 186.21 454.736 186.048 454.295C185.885 453.854 185.635 453.498 185.297 453.226C184.959 452.954 184.528 452.818 184.004 452.818C183.481 452.818 183.05 452.954 182.712 453.226C182.374 453.498 182.123 453.854 181.961 454.295C181.799 454.736 181.717 455.211 181.717 455.722C181.717 456.232 181.799 456.706 181.961 457.143C182.123 457.581 182.374 457.934 182.712 458.202C183.05 458.471 183.481 458.605 184.004 458.605ZM189.929 454.906V459.5H188.756V451.864H189.889V453.057H189.988C190.167 452.669 190.439 452.357 190.804 452.122C191.168 451.884 191.639 451.764 192.216 451.764C192.733 451.764 193.185 451.87 193.573 452.082C193.961 452.291 194.262 452.609 194.478 453.037C194.693 453.461 194.801 453.998 194.801 454.648V459.5H193.628V454.727C193.628 454.127 193.472 453.66 193.16 453.325C192.849 452.987 192.421 452.818 191.878 452.818C191.503 452.818 191.168 452.899 190.873 453.062C190.582 453.224 190.351 453.461 190.182 453.773C190.013 454.084 189.929 454.462 189.929 454.906ZM198.692 459.679C198.208 459.679 197.769 459.588 197.375 459.406C196.98 459.22 196.667 458.953 196.435 458.605C196.203 458.254 196.087 457.83 196.087 457.332C196.087 456.895 196.173 456.54 196.346 456.268C196.518 455.993 196.748 455.778 197.037 455.622C197.325 455.466 197.643 455.35 197.991 455.274C198.342 455.195 198.695 455.132 199.05 455.085C199.514 455.026 199.89 454.981 200.179 454.951C200.47 454.918 200.682 454.863 200.815 454.787C200.951 454.711 201.019 454.578 201.019 454.389V454.349C201.019 453.859 200.885 453.478 200.616 453.206C200.351 452.934 199.948 452.798 199.408 452.798C198.848 452.798 198.409 452.921 198.091 453.166C197.772 453.411 197.549 453.673 197.419 453.952L196.306 453.554C196.505 453.09 196.77 452.729 197.101 452.47C197.436 452.208 197.801 452.026 198.195 451.923C198.593 451.817 198.984 451.764 199.368 451.764C199.614 451.764 199.895 451.794 200.213 451.854C200.535 451.91 200.845 452.028 201.143 452.207C201.445 452.386 201.695 452.656 201.894 453.017C202.093 453.378 202.192 453.862 202.192 454.469V459.5H201.019V458.466H200.959C200.88 458.632 200.747 458.809 200.561 458.998C200.376 459.187 200.129 459.348 199.821 459.48C199.512 459.613 199.136 459.679 198.692 459.679ZM198.871 458.625C199.335 458.625 199.726 458.534 200.044 458.352C200.366 458.169 200.608 457.934 200.77 457.646C200.936 457.357 201.019 457.054 201.019 456.736V455.662C200.969 455.722 200.86 455.776 200.691 455.826C200.525 455.872 200.333 455.914 200.114 455.95C199.899 455.983 199.688 456.013 199.483 456.04C199.28 456.063 199.116 456.083 198.99 456.099C198.685 456.139 198.4 456.204 198.135 456.293C197.873 456.379 197.661 456.51 197.499 456.686C197.34 456.858 197.26 457.094 197.26 457.392C197.26 457.8 197.411 458.108 197.713 458.317C198.018 458.522 198.404 458.625 198.871 458.625ZM207.155 451.864V452.858H203.197V451.864H207.155ZM204.351 450.034H205.524V457.312C205.524 457.644 205.572 457.893 205.668 458.058C205.768 458.221 205.894 458.33 206.046 458.386C206.202 458.439 206.366 458.466 206.538 458.466C206.667 458.466 206.773 458.459 206.856 458.446C206.939 458.429 207.006 458.416 207.055 458.406L207.294 459.46C207.214 459.49 207.103 459.52 206.961 459.55C206.818 459.583 206.638 459.599 206.419 459.599C206.087 459.599 205.763 459.528 205.444 459.386C205.13 459.243 204.868 459.026 204.659 458.734C204.453 458.443 204.351 458.075 204.351 457.631V450.034ZM211.539 459.659C210.803 459.659 210.169 459.497 209.635 459.172C209.105 458.844 208.695 458.386 208.407 457.8C208.122 457.21 207.98 456.524 207.98 455.741C207.98 454.959 208.122 454.27 208.407 453.673C208.695 453.073 209.097 452.606 209.61 452.271C210.127 451.933 210.731 451.764 211.42 451.764C211.818 451.764 212.21 451.83 212.598 451.963C212.986 452.096 213.339 452.311 213.657 452.609C213.975 452.904 214.229 453.295 214.418 453.783C214.607 454.27 214.701 454.87 214.701 455.582V456.08H208.815V455.065H213.508C213.508 454.634 213.422 454.25 213.249 453.912C213.08 453.574 212.838 453.307 212.524 453.112C212.212 452.916 211.844 452.818 211.42 452.818C210.953 452.818 210.548 452.934 210.207 453.166C209.869 453.395 209.609 453.693 209.426 454.061C209.244 454.429 209.153 454.823 209.153 455.244V455.92C209.153 456.497 209.252 456.986 209.451 457.387C209.653 457.785 209.933 458.088 210.291 458.297C210.649 458.502 211.065 458.605 211.539 458.605C211.847 458.605 212.126 458.562 212.374 458.476C212.626 458.386 212.843 458.254 213.026 458.078C213.208 457.899 213.349 457.677 213.448 457.412L214.582 457.73C214.463 458.115 214.262 458.453 213.98 458.744C213.699 459.033 213.351 459.258 212.936 459.42C212.522 459.58 212.056 459.659 211.539 459.659ZM218.869 459.659C218.233 459.659 217.671 459.498 217.184 459.177C216.697 458.852 216.316 458.395 216.041 457.805C215.766 457.211 215.628 456.51 215.628 455.702C215.628 454.9 215.766 454.204 216.041 453.614C216.316 453.024 216.699 452.568 217.189 452.246C217.68 451.925 218.246 451.764 218.889 451.764C219.387 451.764 219.779 451.847 220.068 452.013C220.359 452.175 220.581 452.361 220.734 452.57C220.89 452.775 221.011 452.944 221.097 453.077H221.196V449.318H222.369V459.5H221.236V458.327H221.097C221.011 458.466 220.888 458.642 220.729 458.854C220.57 459.062 220.343 459.25 220.048 459.415C219.753 459.578 219.36 459.659 218.869 459.659ZM219.029 458.605C219.499 458.605 219.897 458.482 220.222 458.237C220.547 457.989 220.794 457.646 220.963 457.208C221.132 456.767 221.216 456.259 221.216 455.682C221.216 455.112 221.133 454.613 220.968 454.185C220.802 453.754 220.557 453.42 220.232 453.181C219.907 452.939 219.506 452.818 219.029 452.818C218.531 452.818 218.117 452.946 217.786 453.201C217.458 453.453 217.211 453.796 217.045 454.23C216.883 454.661 216.801 455.145 216.801 455.682C216.801 456.225 216.884 456.719 217.05 457.163C217.219 457.604 217.468 457.955 217.796 458.217C218.127 458.476 218.538 458.605 219.029 458.605Z" fill="black"/>
<g clip-path="url(#clip0_195_7585)">
<path d="M299.117 62.6683L310.992 83.2364C312.634 86.0796 314.819 88.5717 317.424 90.5703C320.029 92.5689 323.001 94.0349 326.173 94.8846C329.344 95.7343 332.651 95.9511 335.906 95.5226C339.161 95.094 342.3 94.0286 345.143 92.3871C357.1 85.4839 358.259 77.1358 356.336 53.4489C356.325 51.7985 355.662 50.2194 354.491 49.0562C353.32 47.8931 351.737 47.2403 350.086 47.2402C348.436 47.2402 346.852 47.893 345.682 49.0561C344.511 50.2193 343.847 51.7983 343.836 53.4487L343.468 64.4864L329.093 39.5882C328.265 38.1527 326.9 37.1052 325.298 36.6762C323.697 36.2471 321.991 36.4717 320.556 37.3005C319.12 38.1293 318.073 39.4945 317.644 41.0956C317.215 42.6967 317.439 44.4027 318.268 45.8382L315.768 41.5081C314.939 40.0725 313.574 39.0251 311.973 38.596C310.372 38.167 308.666 38.3916 307.23 39.2204C305.795 40.0492 304.747 41.4143 304.318 43.0155C303.889 44.6166 304.114 46.3225 304.943 47.7581L309.943 56.4183C309.114 54.9828 307.749 53.9353 306.148 53.5063C304.547 53.0773 302.841 53.3019 301.405 54.1307C299.97 54.9595 298.922 56.3246 298.493 57.9257C298.064 59.5268 298.289 61.2328 299.117 62.6683Z" fill="#7CE993"/>
<path d="M300.187 52.8895C301.785 51.9653 303.669 51.6657 305.475 52.0485L303.267 48.2245C302.3 46.5443 302.021 44.5548 302.489 42.6734C302.956 40.792 304.134 39.1648 305.776 38.1331C307.417 37.1014 309.394 36.7454 311.293 37.1398C313.191 37.5341 314.862 38.6482 315.957 40.2483C316.404 38.8693 317.241 37.6495 318.367 36.7364C319.493 35.8233 320.86 35.256 322.301 35.1033C323.743 34.9506 325.198 35.2189 326.49 35.8758C327.782 36.5326 328.856 37.55 329.583 38.8046L341.77 59.914L341.993 53.2685C341.989 51.2792 342.775 49.3699 344.179 47.9605C345.583 46.551 347.489 45.757 349.479 45.7531C351.468 45.7492 353.377 46.5357 354.787 47.9395C356.196 49.3434 356.99 51.2497 356.994 53.2389C358.957 77.4583 357.578 86.1501 345.175 93.311C339.144 96.7844 331.981 97.7234 325.259 95.9222C318.536 94.1209 312.803 89.7263 309.317 83.7028L297.442 63.1347C296.447 61.4121 296.178 59.3649 296.692 57.4436C297.207 55.5222 298.464 53.8841 300.187 52.8895ZM311.482 82.4528C314.636 87.9021 319.824 91.8777 325.906 93.5073C331.988 95.137 338.468 94.2878 343.925 91.1459C354.017 85.3194 356.63 79.6575 354.499 53.3915L354.494 53.2896C354.478 51.9743 353.944 50.7184 353.008 49.794C352.072 48.8696 350.81 48.3511 349.494 48.3511C348.179 48.351 346.917 48.8693 345.981 49.7937C345.045 50.718 344.511 51.9739 344.495 53.2892C344.493 53.3036 344.493 53.3181 344.494 53.3326L344.126 64.3703C344.118 64.6424 344.021 64.9042 343.85 65.1161C343.679 65.3279 343.444 65.4782 343.18 65.5441C342.916 65.61 342.637 65.588 342.387 65.4812C342.137 65.3745 341.928 65.189 341.793 64.9528L327.418 40.0546C326.755 38.9062 325.662 38.0682 324.382 37.725C323.101 37.3818 321.736 37.5614 320.587 38.2245C319.439 38.8875 318.601 39.9796 318.258 41.2605C317.915 42.5414 318.094 43.9062 318.757 45.0546L328.132 61.2926C328.298 61.5797 328.343 61.9209 328.257 62.2411C328.171 62.5613 327.962 62.8344 327.675 63.0001C327.388 63.1659 327.046 63.2108 326.726 63.125C326.406 63.0392 326.133 62.8297 325.967 62.5426L314.092 41.9745C313.429 40.8261 312.337 39.9881 311.056 39.6449C309.775 39.3016 308.411 39.4813 307.262 40.1444C306.114 40.8074 305.276 41.8995 304.932 43.1804C304.589 44.4613 304.769 45.8261 305.432 46.9745L317.307 67.5426C317.473 67.8297 317.518 68.1709 317.432 68.4911C317.346 68.8113 317.137 69.0844 316.849 69.2501C316.562 69.4159 316.221 69.4608 315.901 69.375C315.581 69.2892 315.308 69.0797 315.142 68.7926L308.267 56.8847C307.604 55.7363 306.512 54.8983 305.231 54.5551C303.95 54.2119 302.585 54.3916 301.437 55.0546C300.288 55.7177 299.45 56.8097 299.107 58.0906C298.764 59.3715 298.944 60.7363 299.607 61.8847L311.482 82.4528Z" fill="black"/>
</g>
<g clip-path="url(#clip1_195_7585)">
<path d="M315.402 63.8693L303.527 84.4374C301.885 87.2806 299.7 89.7726 297.095 91.7712C294.49 93.7698 291.518 95.2358 288.346 96.0855C285.175 96.9352 281.868 97.152 278.613 96.7235C275.358 96.295 272.219 95.2295 269.376 93.588C257.419 86.6849 256.26 78.3367 258.183 54.6498C258.194 52.9994 258.857 51.4203 260.028 50.2572C261.199 49.094 262.782 48.4412 264.433 48.4412C266.083 48.4411 267.667 49.0939 268.837 50.2571C270.008 51.4202 270.672 52.9992 270.683 54.6496L271.051 65.6874L285.426 40.7891C286.254 39.3536 287.62 38.3061 289.221 37.8771C290.822 37.4481 292.528 37.6727 293.963 38.5015C295.399 39.3303 296.446 40.6954 296.875 42.2965C297.304 43.8976 297.08 45.6036 296.251 47.0391L298.751 42.709C299.58 41.2735 300.945 40.226 302.546 39.797C304.147 39.3679 305.853 39.5925 307.289 40.4213C308.724 41.2501 309.772 42.6153 310.201 44.2164C310.63 45.8175 310.405 47.5235 309.576 48.959L304.576 57.6193C305.405 56.1837 306.77 55.1362 308.371 54.7072C309.972 54.2782 311.678 54.5028 313.114 55.3316C314.549 56.1604 315.597 57.5255 316.026 59.1266C316.455 60.7278 316.23 62.4337 315.402 63.8693Z" fill="white"/>
<path d="M312.713 53.5192C311.115 52.5949 309.231 52.2953 307.425 52.6782L309.633 48.8541C310.6 47.1739 310.879 45.1844 310.411 43.303C309.944 41.4216 308.765 39.7944 307.124 38.7627C305.483 37.7311 303.505 37.3751 301.607 37.7694C299.709 38.1638 298.037 39.2778 296.943 40.8779C296.496 39.499 295.659 38.2791 294.533 37.366C293.407 36.4529 292.04 35.8857 290.599 35.7329C289.157 35.5802 287.702 35.8485 286.41 36.5054C285.118 37.1623 284.043 38.1796 283.317 39.4342L271.13 60.5436L270.907 53.8982C270.911 51.9089 270.124 49.9995 268.721 48.5901C267.317 47.1807 265.411 46.3867 263.421 46.3828C261.432 46.3788 259.523 47.1653 258.113 48.5692C256.704 49.973 255.91 51.8793 255.906 53.8686C253.942 78.0879 255.322 86.7797 267.725 93.9406C273.756 97.414 280.919 98.3531 287.641 96.5518C294.364 94.7505 300.097 90.356 303.583 84.3325L315.458 63.7644C316.453 62.0417 316.722 59.9946 316.208 58.0732C315.693 56.1519 314.436 54.5137 312.713 53.5192ZM301.418 83.0825C298.264 88.5318 293.076 92.5073 286.994 94.137C280.912 95.7667 274.432 94.9174 268.975 91.7756C258.883 85.949 256.27 80.2871 258.401 54.0212L258.406 53.9193C258.422 52.604 258.956 51.348 259.892 50.4236C260.828 49.4992 262.09 48.9808 263.405 48.9807C264.721 48.9807 265.983 49.499 266.919 50.4233C267.855 51.3476 268.389 52.6035 268.405 53.9188C268.407 53.9332 268.407 53.9478 268.406 53.9622L268.773 65C268.782 65.272 268.879 65.5338 269.05 65.7457C269.221 65.9576 269.456 66.1079 269.72 66.1738C269.984 66.2397 270.263 66.2176 270.513 66.1109C270.763 66.0041 270.972 65.8186 271.107 65.5825L285.482 40.6842C286.145 39.5358 287.237 38.6978 288.518 38.3546C289.799 38.0114 291.164 38.1911 292.312 38.8541C293.461 39.5172 294.299 40.6093 294.642 41.8902C294.985 43.171 294.806 44.5358 294.143 45.6842L284.768 61.9222C284.602 62.2093 284.557 62.5505 284.643 62.8707C284.729 63.191 284.938 63.464 285.225 63.6298C285.512 63.7955 285.853 63.8404 286.174 63.7546C286.494 63.6688 286.767 63.4593 286.933 63.1722L298.808 42.6041C299.471 41.4557 300.563 40.6177 301.844 40.2745C303.125 39.9313 304.489 40.111 305.638 40.774C306.786 41.437 307.624 42.5291 307.967 43.81C308.311 45.0909 308.131 46.4557 307.468 47.6041L295.593 68.1722C295.427 68.4593 295.382 68.8005 295.468 69.1207C295.554 69.441 295.763 69.714 296.05 69.8798C296.338 70.0455 296.679 70.0904 296.999 70.0046C297.319 69.9188 297.592 69.7093 297.758 69.4222L304.633 57.5144C305.296 56.366 306.388 55.528 307.669 55.1847C308.95 54.8415 310.315 55.0212 311.463 55.6842C312.612 56.3473 313.45 57.4394 313.793 58.7203C314.136 60.0012 313.956 61.366 313.293 62.5144L301.418 83.0825Z" fill="black"/>
</g>
<path d="M320.139 13.3221C320.139 21.5721 307.139 28.5721 307.139 28.5721C307.139 28.5721 294.139 21.5721 294.139 13.3221C294.139 11.5319 294.85 9.81501 296.116 8.54914C297.382 7.28327 299.098 6.57211 300.889 6.57211C303.712 6.57211 306.131 8.11086 307.139 10.5721C308.146 8.11086 310.565 6.57211 313.389 6.57211C315.179 6.57211 316.896 7.28327 318.162 8.54914C319.428 9.81501 320.139 11.5319 320.139 13.3221Z" fill="#FF8DBD"/>
<path d="M312.927 5.88251C310.302 5.88251 308.019 7.06626 306.677 9.05001C305.334 7.06626 303.052 5.88251 300.427 5.88251C298.438 5.88482 296.532 6.67574 295.126 8.08176C293.72 9.48779 292.929 11.3941 292.927 13.3825C292.927 17.0325 295.202 20.8313 299.689 24.6713C301.746 26.4235 303.967 27.9724 306.322 29.2963C306.431 29.3549 306.553 29.3856 306.677 29.3856C306.801 29.3856 306.923 29.3549 307.032 29.2963C309.387 27.9724 311.608 26.4235 313.664 24.6713C318.152 20.8313 320.427 17.0325 320.427 13.3825C320.424 11.3941 319.634 9.48779 318.228 8.08176C316.821 6.67574 314.915 5.88482 312.927 5.88251ZM306.677 27.7713C304.626 26.5875 294.427 20.3475 294.427 13.3825C294.428 11.7917 295.061 10.2666 296.186 9.14169C297.311 8.01683 298.836 7.38416 300.427 7.38251C302.962 7.38251 305.091 8.73626 305.983 10.9163C306.04 11.0538 306.136 11.1715 306.259 11.2543C306.383 11.3371 306.528 11.3813 306.677 11.3813C306.825 11.3813 306.971 11.3371 307.094 11.2543C307.218 11.1715 307.314 11.0538 307.371 10.9163C308.263 8.73626 310.392 7.38251 312.927 7.38251C314.518 7.38416 316.043 8.01683 317.168 9.14169C318.292 10.2666 318.925 11.7917 318.927 13.3825C318.927 20.3475 308.728 26.5875 306.677 27.7713Z" fill="black"/>
<rect x="32.5" y="232.5" width="158" height="37" rx="18.5" fill="white"/>
<rect x="32.5" y="232.5" width="158" height="37" rx="18.5" stroke="black"/>
<path d="M59.0313 252.625C58.982 252.662 58.926 252.689 58.8663 252.704C58.8067 252.719 58.7446 252.723 58.6837 252.714C58.6228 252.705 58.5641 252.685 58.5112 252.653C58.4582 252.622 58.4119 252.58 58.375 252.531C57.9838 252.005 57.4746 251.579 56.8884 251.286C56.3022 250.993 55.6554 250.841 55 250.844C54.8757 250.844 54.7565 250.794 54.6685 250.706C54.5806 250.619 54.5312 250.499 54.5312 250.375C54.5312 250.251 54.5806 250.131 54.6685 250.044C54.7565 249.956 54.8757 249.906 55 249.906C55.3799 249.906 55.7522 249.8 56.0745 249.599C56.3968 249.397 56.6563 249.11 56.8235 248.769C56.9907 248.428 57.0589 248.047 57.0203 247.669C56.9817 247.291 56.8379 246.931 56.6053 246.631C56.3726 246.331 56.0604 246.102 55.7041 245.97C55.3478 245.838 54.9616 245.809 54.5896 245.886C54.2175 245.962 53.8744 246.142 53.5992 246.404C53.324 246.666 53.1278 246.999 53.0328 247.367C53.0017 247.488 52.9241 247.591 52.817 247.654C52.7099 247.717 52.5821 247.735 52.4617 247.704C52.3413 247.673 52.2382 247.595 52.1751 247.488C52.1119 247.381 52.0939 247.253 52.125 247.133C52.2428 246.675 52.4685 246.251 52.7832 245.898C53.0978 245.544 53.4924 245.271 53.934 245.101C54.3756 244.931 54.8514 244.87 55.3218 244.921C55.7922 244.972 56.2435 245.135 56.6381 245.396C57.0328 245.657 57.3593 246.009 57.5905 246.422C57.8217 246.834 57.9508 247.296 57.9672 247.769C57.9836 248.242 57.8867 248.712 57.6846 249.14C57.4825 249.568 57.1811 249.941 56.8055 250.229C57.7298 250.574 58.5351 251.178 59.125 251.969C59.1619 252.018 59.1888 252.074 59.2041 252.134C59.2194 252.193 59.2227 252.255 59.214 252.316C59.2053 252.377 59.1847 252.436 59.1533 252.489C59.122 252.542 59.0805 252.588 59.0313 252.625ZM54.7805 257.641C54.8113 257.694 54.8314 257.753 54.8395 257.814C54.8475 257.875 54.8435 257.937 54.8276 257.996C54.8118 258.056 54.7843 258.112 54.7469 258.161C54.7094 258.209 54.6627 258.25 54.6094 258.281C54.5383 258.323 54.4574 258.345 54.375 258.345C54.2927 258.345 54.2118 258.323 54.1405 258.282C54.0691 258.241 54.0099 258.181 53.9688 258.11C53.5613 257.42 52.9809 256.848 52.2847 256.45C51.5886 256.053 50.8008 255.844 49.9992 255.844C49.1976 255.844 48.4098 256.053 47.7137 256.45C47.0176 256.848 46.4371 257.42 46.0297 258.11C46.0004 258.166 45.9601 258.216 45.9111 258.256C45.8622 258.296 45.8057 258.325 45.7449 258.343C45.6842 258.361 45.6206 258.366 45.5578 258.358C45.4951 258.351 45.4345 258.33 45.3798 258.299C45.325 258.267 45.2773 258.225 45.2393 258.174C45.2014 258.124 45.1741 258.066 45.159 258.004C45.144 257.943 45.1415 257.879 45.1518 257.817C45.1621 257.754 45.1848 257.695 45.2188 257.641C45.8572 256.544 46.8569 255.703 48.0469 255.262C47.3968 254.84 46.9007 254.219 46.6324 253.492C46.3641 252.765 46.338 251.97 46.5581 251.227C46.7782 250.484 47.2326 249.832 47.8536 249.368C48.4746 248.904 49.2289 248.654 50.0039 248.654C50.7789 248.654 51.5332 248.904 52.1542 249.368C52.7752 249.832 53.2296 250.484 53.4497 251.227C53.6698 251.97 53.6437 252.765 53.3754 253.492C53.1071 254.219 52.611 254.84 51.9609 255.262C53.1476 255.705 54.144 256.545 54.7805 257.641ZM50 254.906C50.5254 254.906 51.0389 254.75 51.4757 254.459C51.9126 254.167 52.253 253.752 52.4541 253.267C52.6551 252.781 52.7077 252.247 52.6052 251.732C52.5027 251.217 52.2497 250.743 51.8783 250.372C51.5068 250 51.0335 249.747 50.5182 249.645C50.0029 249.542 49.4689 249.595 48.9835 249.796C48.4981 249.997 48.0833 250.337 47.7914 250.774C47.4995 251.211 47.3438 251.725 47.3438 252.25C47.3438 252.954 47.6236 253.63 48.1217 254.128C48.6199 254.626 49.2955 254.906 50 254.906ZM45.4688 250.375C45.4688 250.251 45.4194 250.131 45.3315 250.044C45.2435 249.956 45.1243 249.906 45 249.906C44.6201 249.906 44.2479 249.8 43.9256 249.598C43.6034 249.397 43.3439 249.11 43.1767 248.769C43.0095 248.428 42.9413 248.047 42.9799 247.669C43.0184 247.291 43.1621 246.931 43.3947 246.631C43.6273 246.331 43.9395 246.102 44.2957 245.97C44.652 245.838 45.038 245.809 45.4101 245.885C45.7822 245.962 46.1253 246.141 46.4005 246.403C46.6758 246.665 46.8721 246.999 46.9672 247.366C46.9826 247.426 47.0096 247.482 47.0466 247.531C47.0836 247.58 47.13 247.622 47.183 247.653C47.236 247.684 47.2947 247.705 47.3557 247.713C47.4166 247.722 47.4787 247.719 47.5383 247.703C47.5979 247.688 47.6539 247.661 47.7031 247.624C47.7522 247.587 47.7937 247.54 47.8249 247.487C47.8562 247.434 47.8767 247.376 47.8853 247.315C47.8939 247.254 47.8904 247.192 47.875 247.132C47.7572 246.674 47.5315 246.25 47.2168 245.897C46.9022 245.544 46.5076 245.271 46.066 245.101C45.6244 244.931 45.1486 244.869 44.6782 244.92C44.2078 244.971 43.7565 245.134 43.3619 245.395C42.9672 245.656 42.6407 246.008 42.4095 246.421C42.1783 246.834 42.0492 247.296 42.0328 247.769C42.0164 248.241 42.1133 248.711 42.3154 249.139C42.5175 249.567 42.8189 249.94 43.1945 250.228C42.2701 250.573 41.4648 251.178 40.875 251.969C40.8381 252.018 40.8112 252.074 40.7959 252.134C40.7806 252.193 40.7773 252.255 40.786 252.316C40.7947 252.377 40.8153 252.436 40.8467 252.489C40.878 252.542 40.9195 252.588 40.9688 252.625C41.018 252.662 41.074 252.689 41.1337 252.704C41.1933 252.719 41.2554 252.723 41.3163 252.714C41.3772 252.705 41.4359 252.685 41.4888 252.653C41.5418 252.622 41.5881 252.58 41.625 252.531C42.0162 252.005 42.5254 251.579 43.1116 251.286C43.6978 250.993 44.3446 250.841 45 250.844C45.1243 250.844 45.2435 250.794 45.3315 250.706C45.4194 250.619 45.4688 250.499 45.4688 250.375Z" fill="black"/>
<path d="M65.233 256V245.818H66.4659V250.352H71.8949V245.818H73.1278V256H71.8949V251.446H66.4659V256H65.233ZM80.2496 252.878V248.364H81.4229V256H80.2496V254.707H80.1701C79.9911 255.095 79.7127 255.425 79.3349 255.697C78.957 255.965 78.4798 256.099 77.9031 256.099C77.4258 256.099 77.0015 255.995 76.6303 255.786C76.2591 255.574 75.9674 255.256 75.7553 254.832C75.5432 254.404 75.4371 253.866 75.4371 253.216V248.364H76.6104V253.136C76.6104 253.693 76.7662 254.137 77.0778 254.469C77.3926 254.8 77.7937 254.966 78.2809 254.966C78.5726 254.966 78.8692 254.891 79.1708 254.742C79.4757 254.593 79.7309 254.364 79.9364 254.056C80.1452 253.748 80.2496 253.355 80.2496 252.878ZM83.5719 256V248.364H84.7054V249.557H84.8049C84.964 249.149 85.2208 248.833 85.5755 248.607C85.9301 248.379 86.356 248.264 86.8532 248.264C87.3569 248.264 87.7762 248.379 88.111 248.607C88.449 248.833 88.7125 249.149 88.9015 249.557H88.981C89.1766 249.162 89.4699 248.849 89.861 248.617C90.2521 248.382 90.7211 248.264 91.2679 248.264C91.9507 248.264 92.5092 248.478 92.9434 248.906C93.3775 249.33 93.5946 249.991 93.5946 250.889V256H92.4213V250.889C92.4213 250.326 92.2672 249.923 91.959 249.681C91.6507 249.439 91.2878 249.318 90.8702 249.318C90.3333 249.318 89.9173 249.481 89.6223 249.805C89.3274 250.127 89.1799 250.535 89.1799 251.028V256H87.9867V250.77C87.9867 250.336 87.8458 249.986 87.5641 249.721C87.2824 249.452 86.9194 249.318 86.4753 249.318C86.1704 249.318 85.8854 249.399 85.6202 249.562C85.3584 249.724 85.1462 249.95 84.9838 250.238C84.8248 250.523 84.7452 250.853 84.7452 251.227V256H83.5719ZM97.987 256.179C97.5031 256.179 97.064 256.088 96.6696 255.906C96.2752 255.72 95.9619 255.453 95.7299 255.105C95.4979 254.754 95.3819 254.33 95.3819 253.832C95.3819 253.395 95.4681 253.04 95.6404 252.768C95.8128 252.493 96.0431 252.278 96.3315 252.122C96.6199 251.966 96.938 251.85 97.286 251.774C97.6374 251.695 97.9904 251.632 98.345 251.585C98.809 251.526 99.1852 251.481 99.4735 251.451C99.7652 251.418 99.9773 251.363 100.11 251.287C100.246 251.211 100.314 251.078 100.314 250.889V250.849C100.314 250.359 100.18 249.978 99.911 249.706C99.6459 249.434 99.2432 249.298 98.7029 249.298C98.1428 249.298 97.7037 249.421 97.3855 249.666C97.0673 249.911 96.8436 250.173 96.7143 250.452L95.6007 250.054C95.7995 249.59 96.0647 249.229 96.3961 248.97C96.7309 248.708 97.0955 248.526 97.4899 248.423C97.8876 248.317 98.2787 248.264 98.6632 248.264C98.9084 248.264 99.1902 248.294 99.5083 248.354C99.8298 248.41 100.14 248.528 100.438 248.707C100.74 248.886 100.99 249.156 101.189 249.517C101.388 249.878 101.487 250.362 101.487 250.969V256H100.314V254.966H100.254C100.175 255.132 100.042 255.309 99.8564 255.498C99.6708 255.687 99.4238 255.848 99.1156 255.98C98.8074 256.113 98.4312 256.179 97.987 256.179ZM98.166 255.125C98.63 255.125 99.0211 255.034 99.3393 254.852C99.6608 254.669 99.9028 254.434 100.065 254.146C100.231 253.857 100.314 253.554 100.314 253.236V252.162C100.264 252.222 100.155 252.276 99.9856 252.326C99.8199 252.372 99.6277 252.414 99.4089 252.45C99.1935 252.483 98.983 252.513 98.7775 252.54C98.5753 252.563 98.4113 252.583 98.2853 252.599C97.9804 252.639 97.6954 252.704 97.4302 252.793C97.1684 252.879 96.9563 253.01 96.7939 253.186C96.6348 253.358 96.5552 253.594 96.5552 253.892C96.5552 254.3 96.706 254.608 97.0076 254.817C97.3126 255.022 97.6987 255.125 98.166 255.125ZM104.802 251.406V256H103.629V248.364H104.762V249.557H104.862C105.04 249.169 105.312 248.857 105.677 248.622C106.041 248.384 106.512 248.264 107.089 248.264C107.606 248.264 108.058 248.37 108.446 248.582C108.834 248.791 109.135 249.109 109.351 249.537C109.566 249.961 109.674 250.498 109.674 251.148V256H108.501V251.227C108.501 250.627 108.345 250.16 108.033 249.825C107.722 249.487 107.294 249.318 106.751 249.318C106.376 249.318 106.041 249.399 105.746 249.562C105.455 249.724 105.224 249.961 105.055 250.273C104.886 250.584 104.802 250.962 104.802 251.406ZM111.818 256V248.364H112.991V256H111.818ZM112.415 247.091C112.186 247.091 111.989 247.013 111.823 246.857C111.661 246.701 111.579 246.514 111.579 246.295C111.579 246.077 111.661 245.889 111.823 245.734C111.989 245.578 112.186 245.5 112.415 245.5C112.643 245.5 112.839 245.578 113.001 245.734C113.167 245.889 113.25 246.077 113.25 246.295C113.25 246.514 113.167 246.701 113.001 246.857C112.839 247.013 112.643 247.091 112.415 247.091ZM118.461 248.364V249.358H114.504V248.364H118.461ZM115.657 246.534H116.831V253.812C116.831 254.144 116.879 254.393 116.975 254.558C117.074 254.721 117.2 254.83 117.353 254.886C117.508 254.939 117.672 254.966 117.845 254.966C117.974 254.966 118.08 254.959 118.163 254.946C118.246 254.929 118.312 254.916 118.362 254.906L118.6 255.96C118.521 255.99 118.41 256.02 118.267 256.05C118.125 256.083 117.944 256.099 117.725 256.099C117.394 256.099 117.069 256.028 116.751 255.886C116.436 255.743 116.174 255.526 115.966 255.234C115.76 254.943 115.657 254.575 115.657 254.131V246.534ZM120.982 258.864C120.783 258.864 120.606 258.847 120.45 258.814C120.294 258.784 120.186 258.754 120.127 258.724L120.425 257.69C120.71 257.763 120.962 257.79 121.181 257.77C121.4 257.75 121.593 257.652 121.762 257.477C121.935 257.304 122.092 257.024 122.235 256.636L122.453 256.04L119.63 248.364H120.902L123.01 254.449H123.09L125.198 248.364H126.471L123.229 257.114C123.083 257.508 122.903 257.835 122.687 258.093C122.472 258.355 122.221 258.549 121.936 258.675C121.655 258.801 121.337 258.864 120.982 258.864ZM132.533 256H131.241L134.979 245.818H136.252L139.991 256H138.698L135.656 247.429H135.576L132.533 256ZM133.011 252.023H138.221V253.116H133.011V252.023ZM144.52 256.159C143.804 256.159 143.188 255.99 142.67 255.652C142.153 255.314 141.756 254.848 141.477 254.255C141.199 253.662 141.06 252.984 141.06 252.222C141.06 251.446 141.202 250.762 141.487 250.168C141.776 249.572 142.177 249.106 142.69 248.771C143.207 248.433 143.811 248.264 144.5 248.264C145.037 248.264 145.521 248.364 145.952 248.562C146.383 248.761 146.736 249.04 147.011 249.398C147.286 249.756 147.456 250.173 147.523 250.651H146.349C146.26 250.303 146.061 249.994 145.753 249.726C145.448 249.454 145.037 249.318 144.52 249.318C144.063 249.318 143.661 249.437 143.317 249.676C142.975 249.911 142.709 250.245 142.516 250.675C142.327 251.103 142.233 251.605 142.233 252.182C142.233 252.772 142.326 253.286 142.511 253.723C142.7 254.161 142.965 254.5 143.307 254.742C143.652 254.984 144.056 255.105 144.52 255.105C144.825 255.105 145.102 255.052 145.35 254.946C145.599 254.84 145.809 254.688 145.982 254.489C146.154 254.29 146.277 254.051 146.349 253.773H147.523C147.456 254.223 147.292 254.629 147.031 254.991C146.772 255.349 146.429 255.634 146.001 255.846C145.577 256.055 145.083 256.159 144.52 256.159ZM152.559 248.364V249.358H148.602V248.364H152.559ZM149.755 246.534H150.928V253.812C150.928 254.144 150.976 254.393 151.072 254.558C151.172 254.721 151.298 254.83 151.45 254.886C151.606 254.939 151.77 254.966 151.942 254.966C152.072 254.966 152.178 254.959 152.261 254.946C152.344 254.929 152.41 254.916 152.46 254.906L152.698 255.96C152.619 255.99 152.508 256.02 152.365 256.05C152.223 256.083 152.042 256.099 151.823 256.099C151.492 256.099 151.167 256.028 150.849 255.886C150.534 255.743 150.272 255.526 150.063 255.234C149.858 254.943 149.755 254.575 149.755 254.131V246.534ZM154.324 256V248.364H155.497V256H154.324ZM154.92 247.091C154.692 247.091 154.495 247.013 154.329 246.857C154.166 246.701 154.085 246.514 154.085 246.295C154.085 246.077 154.166 245.889 154.329 245.734C154.495 245.578 154.692 245.5 154.92 245.5C155.149 245.5 155.345 245.578 155.507 245.734C155.673 245.889 155.756 246.077 155.756 246.295C155.756 246.514 155.673 246.701 155.507 246.857C155.345 247.013 155.149 247.091 154.92 247.091ZM160.748 256.159C160.059 256.159 159.454 255.995 158.934 255.667C158.417 255.339 158.012 254.88 157.721 254.29C157.432 253.7 157.288 253.01 157.288 252.222C157.288 251.426 157.432 250.732 157.721 250.138C158.012 249.545 158.417 249.085 158.934 248.756C159.454 248.428 160.059 248.264 160.748 248.264C161.438 248.264 162.041 248.428 162.558 248.756C163.078 249.085 163.483 249.545 163.771 250.138C164.063 250.732 164.209 251.426 164.209 252.222C164.209 253.01 164.063 253.7 163.771 254.29C163.483 254.88 163.078 255.339 162.558 255.667C162.041 255.995 161.438 256.159 160.748 256.159ZM160.748 255.105C161.272 255.105 161.703 254.971 162.041 254.702C162.379 254.434 162.629 254.081 162.792 253.643C162.954 253.206 163.035 252.732 163.035 252.222C163.035 251.711 162.954 251.236 162.792 250.795C162.629 250.354 162.379 249.998 162.041 249.726C161.703 249.454 161.272 249.318 160.748 249.318C160.225 249.318 159.794 249.454 159.456 249.726C159.118 249.998 158.867 250.354 158.705 250.795C158.543 251.236 158.461 251.711 158.461 252.222C158.461 252.732 158.543 253.206 158.705 253.643C158.867 254.081 159.118 254.434 159.456 254.702C159.794 254.971 160.225 255.105 160.748 255.105ZM167.173 251.406V256H166V248.364H167.133V249.557H167.233C167.412 249.169 167.683 248.857 168.048 248.622C168.413 248.384 168.883 248.264 169.46 248.264C169.977 248.264 170.429 248.37 170.817 248.582C171.205 248.791 171.507 249.109 171.722 249.537C171.937 249.961 172.045 250.498 172.045 251.148V256H170.872V251.227C170.872 250.627 170.716 250.16 170.404 249.825C170.093 249.487 169.665 249.318 169.122 249.318C168.747 249.318 168.413 249.399 168.118 249.562C167.826 249.724 167.596 249.961 167.426 250.273C167.257 250.584 167.173 250.962 167.173 251.406ZM179.598 250.074L178.544 250.372C178.478 250.196 178.38 250.026 178.251 249.86C178.125 249.691 177.953 249.552 177.734 249.442C177.515 249.333 177.235 249.278 176.894 249.278C176.426 249.278 176.037 249.386 175.725 249.602C175.417 249.814 175.263 250.084 175.263 250.412C175.263 250.704 175.369 250.934 175.581 251.103C175.793 251.272 176.125 251.413 176.575 251.526L177.709 251.804C178.392 251.97 178.901 252.223 179.235 252.565C179.57 252.903 179.737 253.339 179.737 253.872C179.737 254.31 179.611 254.701 179.36 255.045C179.111 255.39 178.763 255.662 178.316 255.861C177.868 256.06 177.348 256.159 176.754 256.159C175.976 256.159 175.331 255.99 174.82 255.652C174.31 255.314 173.987 254.82 173.851 254.17L174.965 253.892C175.071 254.303 175.271 254.611 175.566 254.817C175.865 255.022 176.254 255.125 176.735 255.125C177.281 255.125 177.716 255.009 178.037 254.777C178.362 254.542 178.524 254.26 178.524 253.932C178.524 253.667 178.432 253.445 178.246 253.266C178.06 253.083 177.775 252.947 177.391 252.858L176.118 252.56C175.419 252.394 174.905 252.137 174.577 251.789C174.252 251.438 174.09 250.999 174.09 250.472C174.09 250.041 174.211 249.66 174.453 249.328C174.698 248.997 175.031 248.737 175.452 248.548C175.876 248.359 176.357 248.264 176.894 248.264C177.649 248.264 178.243 248.43 178.673 248.761C179.108 249.093 179.416 249.53 179.598 250.074Z" fill="black"/>
<rect x="32.5" y="304.5" width="105" height="37" rx="18.5" fill="white"/>
<rect x="32.5" y="304.5" width="105" height="37" rx="18.5" stroke="black"/>
<path d="M53.9062 316.281C52.2656 316.281 50.8391 317.021 50 318.261C49.1609 317.021 47.7344 316.281 46.0938 316.281C44.851 316.283 43.6595 316.777 42.7808 317.656C41.902 318.535 41.4077 319.726 41.4062 320.969C41.4062 323.25 42.8281 325.624 45.6328 328.024C46.918 329.119 48.3063 330.087 49.7781 330.915C49.8463 330.951 49.9226 330.971 50 330.971C50.0774 330.971 50.1537 330.951 50.2219 330.915C51.6937 330.087 53.082 329.119 54.3672 328.024C57.1719 325.624 58.5938 323.25 58.5938 320.969C58.5923 319.726 58.098 318.535 57.2192 317.656C56.3405 316.777 55.149 316.283 53.9062 316.281ZM50 329.962C48.718 329.222 42.3438 325.322 42.3438 320.969C42.3448 319.975 42.7402 319.021 43.4432 318.318C44.1463 317.615 45.0995 317.22 46.0938 317.219C47.6781 317.219 49.0086 318.065 49.5664 319.427C49.6017 319.513 49.6618 319.587 49.739 319.639C49.8162 319.69 49.9071 319.718 50 319.718C50.0929 319.718 50.1838 319.69 50.261 319.639C50.3382 319.587 50.3983 319.513 50.4336 319.427C50.9914 318.065 52.3219 317.219 53.9062 317.219C54.9005 317.22 55.8537 317.615 56.5568 318.318C57.2598 319.021 57.6552 319.975 57.6562 320.969C57.6562 325.322 51.282 329.222 50 329.962Z" fill="black"/>
<path d="M65.6506 317.818L68.6733 326.389H68.7926L71.8153 317.818H73.108L69.3693 328H68.0966L64.358 317.818H65.6506ZM76.9261 328.159C76.2367 328.159 75.6319 327.995 75.1115 327.667C74.5945 327.339 74.1901 326.88 73.8984 326.29C73.6101 325.7 73.4659 325.01 73.4659 324.222C73.4659 323.426 73.6101 322.732 73.8984 322.138C74.1901 321.545 74.5945 321.085 75.1115 320.756C75.6319 320.428 76.2367 320.264 76.9261 320.264C77.6155 320.264 78.2188 320.428 78.7358 320.756C79.2562 321.085 79.6605 321.545 79.9489 322.138C80.2405 322.732 80.3864 323.426 80.3864 324.222C80.3864 325.01 80.2405 325.7 79.9489 326.29C79.6605 326.88 79.2562 327.339 78.7358 327.667C78.2188 327.995 77.6155 328.159 76.9261 328.159ZM76.9261 327.105C77.4498 327.105 77.8807 326.971 78.2188 326.702C78.5568 326.434 78.8071 326.081 78.9695 325.643C79.1319 325.206 79.2131 324.732 79.2131 324.222C79.2131 323.711 79.1319 323.236 78.9695 322.795C78.8071 322.354 78.5568 321.998 78.2188 321.726C77.8807 321.454 77.4498 321.318 76.9261 321.318C76.4025 321.318 75.9716 321.454 75.6335 321.726C75.2955 321.998 75.0452 322.354 74.8828 322.795C74.7204 323.236 74.6392 323.711 74.6392 324.222C74.6392 324.732 74.7204 325.206 74.8828 325.643C75.0452 326.081 75.2955 326.434 75.6335 326.702C75.9716 326.971 76.4025 327.105 76.9261 327.105ZM83.3507 317.818V328H82.1774V317.818H83.3507ZM90.3121 324.878V320.364H91.4854V328H90.3121V326.707H90.2326C90.0536 327.095 89.7752 327.425 89.3974 327.697C89.0195 327.965 88.5423 328.099 87.9656 328.099C87.4883 328.099 87.064 327.995 86.6928 327.786C86.3216 327.574 86.0299 327.256 85.8178 326.832C85.6057 326.404 85.4996 325.866 85.4996 325.216V320.364H86.6729V325.136C86.6729 325.693 86.8287 326.137 87.1403 326.469C87.4551 326.8 87.8562 326.966 88.3434 326.966C88.6351 326.966 88.9317 326.891 89.2333 326.742C89.5382 326.593 89.7934 326.364 89.9989 326.056C90.2077 325.748 90.3121 325.355 90.3121 324.878ZM94.8077 323.406V328H93.6344V320.364H94.7679V321.557H94.8674C95.0463 321.169 95.3181 320.857 95.6827 320.622C96.0473 320.384 96.5179 320.264 97.0946 320.264C97.6117 320.264 98.0641 320.37 98.4519 320.582C98.8397 320.791 99.1413 321.109 99.3567 321.537C99.5721 321.961 99.6799 322.498 99.6799 323.148V328H98.5066V323.227C98.5066 322.627 98.3508 322.16 98.0392 321.825C97.7277 321.487 97.3001 321.318 96.7566 321.318C96.382 321.318 96.0473 321.399 95.7523 321.562C95.4606 321.724 95.2303 321.961 95.0613 322.273C94.8922 322.584 94.8077 322.962 94.8077 323.406ZM105.145 320.364V321.358H101.188V320.364H105.145ZM102.341 318.534H103.514V325.812C103.514 326.144 103.562 326.393 103.658 326.558C103.758 326.721 103.884 326.83 104.036 326.886C104.192 326.939 104.356 326.966 104.528 326.966C104.658 326.966 104.764 326.959 104.847 326.946C104.929 326.929 104.996 326.916 105.045 326.906L105.284 327.96C105.205 327.99 105.094 328.02 104.951 328.05C104.808 328.083 104.628 328.099 104.409 328.099C104.078 328.099 103.753 328.028 103.435 327.886C103.12 327.743 102.858 327.526 102.649 327.234C102.444 326.943 102.341 326.575 102.341 326.131V318.534ZM110.029 328.159C109.294 328.159 108.659 327.997 108.125 327.672C107.595 327.344 107.186 326.886 106.897 326.3C106.612 325.71 106.47 325.024 106.47 324.241C106.47 323.459 106.612 322.77 106.897 322.173C107.186 321.573 107.587 321.106 108.1 320.771C108.618 320.433 109.221 320.264 109.91 320.264C110.308 320.264 110.701 320.33 111.088 320.463C111.476 320.596 111.829 320.811 112.147 321.109C112.466 321.404 112.719 321.795 112.908 322.283C113.097 322.77 113.191 323.37 113.191 324.082V324.58H107.305V323.565H111.998C111.998 323.134 111.912 322.75 111.74 322.412C111.571 322.074 111.329 321.807 111.014 321.612C110.702 321.416 110.334 321.318 109.91 321.318C109.443 321.318 109.038 321.434 108.697 321.666C108.359 321.895 108.099 322.193 107.917 322.561C107.734 322.929 107.643 323.323 107.643 323.744V324.42C107.643 324.997 107.743 325.486 107.941 325.887C108.144 326.285 108.424 326.588 108.782 326.797C109.14 327.002 109.556 327.105 110.029 327.105C110.338 327.105 110.616 327.062 110.865 326.976C111.117 326.886 111.334 326.754 111.516 326.578C111.698 326.399 111.839 326.177 111.939 325.912L113.072 326.23C112.953 326.615 112.752 326.953 112.471 327.244C112.189 327.533 111.841 327.758 111.426 327.92C111.012 328.08 110.547 328.159 110.029 328.159ZM118.178 328.159C117.442 328.159 116.807 327.997 116.274 327.672C115.743 327.344 115.334 326.886 115.046 326.3C114.761 325.71 114.618 325.024 114.618 324.241C114.618 323.459 114.761 322.77 115.046 322.173C115.334 321.573 115.735 321.106 116.249 320.771C116.766 320.433 117.369 320.264 118.059 320.264C118.456 320.264 118.849 320.33 119.237 320.463C119.625 320.596 119.978 320.811 120.296 321.109C120.614 321.404 120.868 321.795 121.056 322.283C121.245 322.77 121.34 323.37 121.34 324.082V324.58H115.453V323.565H120.147C120.147 323.134 120.06 322.75 119.888 322.412C119.719 322.074 119.477 321.807 119.162 321.612C118.851 321.416 118.483 321.318 118.059 321.318C117.591 321.318 117.187 321.434 116.846 321.666C116.507 321.895 116.247 322.193 116.065 322.561C115.883 322.929 115.792 323.323 115.792 323.744V324.42C115.792 324.997 115.891 325.486 116.09 325.887C116.292 326.285 116.572 326.588 116.93 326.797C117.288 327.002 117.704 327.105 118.178 327.105C118.486 327.105 118.765 327.062 119.013 326.976C119.265 326.886 119.482 326.754 119.664 326.578C119.847 326.399 119.988 326.177 120.087 325.912L121.221 326.23C121.101 326.615 120.901 326.953 120.619 327.244C120.337 327.533 119.989 327.758 119.575 327.92C119.161 328.08 118.695 328.159 118.178 328.159ZM123.125 328V320.364H124.258V321.517H124.338C124.477 321.139 124.729 320.833 125.093 320.597C125.458 320.362 125.869 320.244 126.326 320.244C126.413 320.244 126.52 320.246 126.65 320.249C126.779 320.253 126.877 320.258 126.943 320.264V321.457C126.903 321.447 126.812 321.433 126.669 321.413C126.53 321.389 126.383 321.378 126.227 321.378C125.856 321.378 125.524 321.456 125.233 321.612C124.944 321.764 124.716 321.976 124.547 322.248C124.381 322.516 124.298 322.823 124.298 323.168V328H123.125Z" fill="black"/>
<rect x="468.5" y="120.5" width="89" height="37" rx="18.5" fill="white"/>
<rect x="468.5" y="120.5" width="89" height="37" rx="18.5" stroke="black"/>
<path d="M493.9 140.145C493.686 139.98 493.437 139.867 493.172 139.814C492.907 139.761 492.633 139.771 492.373 139.841L492.035 139.92C493.734 138.34 494.594 136.774 494.594 135.25C494.594 133.269 493.001 131.656 491.042 131.656C490.49 131.653 489.944 131.778 489.449 132.022C488.953 132.266 488.521 132.622 488.188 133.063C487.854 132.622 487.422 132.266 486.926 132.022C486.431 131.778 485.885 131.653 485.333 131.656C483.374 131.656 481.781 133.269 481.781 135.25C481.781 136.139 482.065 137.007 482.663 137.934C482.173 138.01 481.719 138.241 481.37 138.593L479.556 140.406H477.25C476.96 140.406 476.682 140.521 476.477 140.727C476.271 140.932 476.156 141.21 476.156 141.5V144.625C476.156 144.915 476.271 145.193 476.477 145.398C476.682 145.604 476.96 145.719 477.25 145.719H485.375C485.413 145.719 485.452 145.714 485.489 145.705L490.489 144.455C490.513 144.448 490.536 144.441 490.559 144.431L493.591 143.141L493.617 143.129C493.885 142.995 494.115 142.795 494.284 142.548C494.454 142.301 494.558 142.014 494.586 141.716C494.614 141.418 494.566 141.117 494.446 140.842C494.326 140.568 494.138 140.328 493.9 140.146V140.145ZM485.333 132.594C485.848 132.587 486.354 132.734 486.786 133.016C487.217 133.298 487.554 133.703 487.755 134.178C487.79 134.264 487.85 134.338 487.927 134.389C488.004 134.441 488.095 134.469 488.188 134.469C488.281 134.469 488.372 134.441 488.449 134.389C488.526 134.338 488.587 134.264 488.622 134.178C488.822 133.703 489.159 133.298 489.591 133.016C490.022 132.734 490.528 132.587 491.044 132.594C492.459 132.594 493.656 133.81 493.656 135.25C493.656 136.831 492.392 138.609 490 140.387L488.838 140.654C488.954 140.347 488.994 140.016 488.954 139.69C488.914 139.364 488.795 139.052 488.608 138.782C488.421 138.512 488.172 138.291 487.881 138.138C487.59 137.986 487.266 137.906 486.938 137.906H483.787C483.059 136.943 482.719 136.095 482.719 135.25C482.719 133.81 483.916 132.594 485.333 132.594ZM477.094 144.625V141.5C477.094 141.459 477.11 141.419 477.14 141.39C477.169 141.36 477.209 141.344 477.25 141.344H479.281V144.781H477.25C477.209 144.781 477.169 144.765 477.14 144.735C477.11 144.706 477.094 144.666 477.094 144.625ZM493.209 142.281L490.225 143.552L485.317 144.781H480.219V141.07L482.032 139.255C482.162 139.124 482.317 139.021 482.488 138.95C482.659 138.879 482.842 138.843 483.027 138.844H486.938C487.228 138.844 487.506 138.959 487.711 139.164C487.916 139.369 488.031 139.647 488.031 139.938C488.031 140.228 487.916 140.506 487.711 140.711C487.506 140.916 487.228 141.031 486.938 141.031H484.75C484.626 141.031 484.506 141.081 484.419 141.169C484.331 141.256 484.281 141.376 484.281 141.5C484.281 141.624 484.331 141.744 484.419 141.831C484.506 141.919 484.626 141.969 484.75 141.969H487.25C487.285 141.969 487.32 141.965 487.355 141.957L492.589 140.753L492.608 140.748C492.805 140.695 493.015 140.716 493.197 140.807C493.38 140.899 493.522 141.055 493.597 141.245C493.671 141.435 493.673 141.646 493.601 141.837C493.53 142.028 493.39 142.187 493.209 142.281Z" fill="black"/>
<path d="M504.375 144H501.233V133.818H504.514C505.502 133.818 506.347 134.022 507.05 134.43C507.752 134.834 508.291 135.416 508.665 136.175C509.04 136.93 509.227 137.835 509.227 138.889C509.227 139.95 509.038 140.863 508.661 141.629C508.283 142.391 507.732 142.978 507.01 143.388C506.287 143.796 505.409 144 504.375 144ZM502.466 142.906H504.295C505.137 142.906 505.835 142.744 506.388 142.419C506.942 142.094 507.355 141.632 507.626 141.032C507.898 140.432 508.034 139.718 508.034 138.889C508.034 138.067 507.9 137.36 507.631 136.766C507.363 136.17 506.962 135.712 506.428 135.394C505.895 135.073 505.23 134.912 504.435 134.912H502.466V142.906ZM514.239 144.159C513.549 144.159 512.944 143.995 512.424 143.667C511.907 143.339 511.503 142.88 511.211 142.29C510.923 141.7 510.778 141.01 510.778 140.222C510.778 139.426 510.923 138.732 511.211 138.138C511.503 137.545 511.907 137.085 512.424 136.756C512.944 136.428 513.549 136.264 514.239 136.264C514.928 136.264 515.531 136.428 516.048 136.756C516.569 137.085 516.973 137.545 517.261 138.138C517.553 138.732 517.699 139.426 517.699 140.222C517.699 141.01 517.553 141.7 517.261 142.29C516.973 142.88 516.569 143.339 516.048 143.667C515.531 143.995 514.928 144.159 514.239 144.159ZM514.239 143.105C514.762 143.105 515.193 142.971 515.531 142.702C515.869 142.434 516.12 142.081 516.282 141.643C516.444 141.206 516.526 140.732 516.526 140.222C516.526 139.711 516.444 139.236 516.282 138.795C516.12 138.354 515.869 137.998 515.531 137.726C515.193 137.454 514.762 137.318 514.239 137.318C513.715 137.318 513.284 137.454 512.946 137.726C512.608 137.998 512.358 138.354 512.195 138.795C512.033 139.236 511.952 139.711 511.952 140.222C511.952 140.732 512.033 141.206 512.195 141.643C512.358 142.081 512.608 142.434 512.946 142.702C513.284 142.971 513.715 143.105 514.239 143.105ZM520.663 139.406V144H519.49V136.364H520.623V137.557H520.723C520.902 137.169 521.174 136.857 521.538 136.622C521.903 136.384 522.373 136.264 522.95 136.264C523.467 136.264 523.92 136.37 524.307 136.582C524.695 136.791 524.997 137.109 525.212 137.537C525.428 137.961 525.535 138.498 525.535 139.148V144H524.362V139.227C524.362 138.627 524.206 138.16 523.895 137.825C523.583 137.487 523.156 137.318 522.612 137.318C522.238 137.318 521.903 137.399 521.608 137.562C521.316 137.724 521.086 137.961 520.917 138.273C520.748 138.584 520.663 138.962 520.663 139.406ZM529.926 144.179C529.443 144.179 529.003 144.088 528.609 143.906C528.215 143.72 527.901 143.453 527.669 143.105C527.437 142.754 527.321 142.33 527.321 141.832C527.321 141.395 527.408 141.04 527.58 140.768C527.752 140.493 527.983 140.278 528.271 140.122C528.559 139.966 528.877 139.85 529.225 139.774C529.577 139.695 529.93 139.632 530.284 139.585C530.748 139.526 531.125 139.481 531.413 139.451C531.705 139.418 531.917 139.363 532.049 139.287C532.185 139.211 532.253 139.078 532.253 138.889V138.849C532.253 138.359 532.119 137.978 531.85 137.706C531.585 137.434 531.183 137.298 530.642 137.298C530.082 137.298 529.643 137.421 529.325 137.666C529.007 137.911 528.783 138.173 528.654 138.452L527.54 138.054C527.739 137.59 528.004 137.229 528.336 136.97C528.67 136.708 529.035 136.526 529.429 136.423C529.827 136.317 530.218 136.264 530.603 136.264C530.848 136.264 531.13 136.294 531.448 136.354C531.769 136.41 532.079 136.528 532.377 136.707C532.679 136.886 532.929 137.156 533.128 137.517C533.327 137.878 533.426 138.362 533.426 138.969V144H532.253V142.966H532.194C532.114 143.132 531.981 143.309 531.796 143.498C531.61 143.687 531.363 143.848 531.055 143.98C530.747 144.113 530.371 144.179 529.926 144.179ZM530.105 143.125C530.569 143.125 530.961 143.034 531.279 142.852C531.6 142.669 531.842 142.434 532.005 142.146C532.17 141.857 532.253 141.554 532.253 141.236V140.162C532.203 140.222 532.094 140.276 531.925 140.326C531.759 140.372 531.567 140.414 531.348 140.45C531.133 140.483 530.922 140.513 530.717 140.54C530.515 140.563 530.351 140.583 530.225 140.599C529.92 140.639 529.635 140.704 529.37 140.793C529.108 140.879 528.896 141.01 528.733 141.186C528.574 141.358 528.495 141.594 528.495 141.892C528.495 142.3 528.645 142.608 528.947 142.817C529.252 143.022 529.638 143.125 530.105 143.125ZM538.889 136.364V137.358H534.932V136.364H538.889ZM536.085 134.534H537.258V141.812C537.258 142.144 537.306 142.393 537.403 142.558C537.502 142.721 537.628 142.83 537.78 142.886C537.936 142.939 538.1 142.966 538.273 142.966C538.402 142.966 538.508 142.959 538.591 142.946C538.674 142.929 538.74 142.916 538.79 142.906L539.028 143.96C538.949 143.99 538.838 144.02 538.695 144.05C538.553 144.083 538.372 144.099 538.153 144.099C537.822 144.099 537.497 144.028 537.179 143.886C536.864 143.743 536.602 143.526 536.393 143.234C536.188 142.943 536.085 142.575 536.085 142.131V134.534ZM543.774 144.159C543.038 144.159 542.403 143.997 541.869 143.672C541.339 143.344 540.93 142.886 540.642 142.3C540.356 141.71 540.214 141.024 540.214 140.241C540.214 139.459 540.356 138.77 540.642 138.173C540.93 137.573 541.331 137.106 541.845 136.771C542.362 136.433 542.965 136.264 543.654 136.264C544.052 136.264 544.445 136.33 544.833 136.463C545.22 136.596 545.573 136.811 545.892 137.109C546.21 137.404 546.463 137.795 546.652 138.283C546.841 138.77 546.936 139.37 546.936 140.082V140.58H541.049V139.565H545.742C545.742 139.134 545.656 138.75 545.484 138.412C545.315 138.074 545.073 137.807 544.758 137.612C544.446 137.416 544.079 137.318 543.654 137.318C543.187 137.318 542.783 137.434 542.441 137.666C542.103 137.895 541.843 138.193 541.661 138.561C541.478 138.929 541.387 139.323 541.387 139.744V140.42C541.387 140.997 541.487 141.486 541.686 141.887C541.888 142.285 542.168 142.588 542.526 142.797C542.884 143.002 543.3 143.105 543.774 143.105C544.082 143.105 544.36 143.062 544.609 142.976C544.861 142.886 545.078 142.754 545.26 142.578C545.442 142.399 545.583 142.177 545.683 141.912L546.816 142.23C546.697 142.615 546.496 142.953 546.215 143.244C545.933 143.533 545.585 143.758 545.171 143.92C544.756 144.08 544.291 144.159 543.774 144.159Z" fill="black"/>
<path d="M470 488C470 492.747 468.592 497.387 465.955 501.334C463.318 505.28 459.57 508.357 455.184 510.173C450.799 511.99 445.973 512.465 441.318 511.539C436.662 510.613 432.386 508.327 429.029 504.971C425.673 501.614 423.387 497.338 422.461 492.682C421.535 488.027 422.01 483.201 423.827 478.816C425.643 474.43 428.72 470.682 432.666 468.045C436.613 465.408 441.253 464 446 464C452.365 464 458.47 466.529 462.971 471.029C467.471 475.53 470 481.635 470 488Z" fill="#7CE993"/>
<path d="M457.162 481.156C457.255 481.249 457.329 481.359 457.379 481.481C457.429 481.602 457.455 481.732 457.455 481.864C457.455 481.995 457.429 482.125 457.379 482.247C457.329 482.368 457.255 482.478 457.162 482.571L443.162 496.571C443.069 496.664 442.959 496.738 442.838 496.788C442.716 496.838 442.586 496.864 442.455 496.864C442.323 496.864 442.193 496.838 442.072 496.788C441.95 496.738 441.84 496.664 441.747 496.571L435.747 490.571C435.559 490.383 435.454 490.129 435.454 489.864C435.454 489.598 435.559 489.344 435.747 489.156C435.935 488.968 436.189 488.863 436.455 488.863C436.72 488.863 436.974 488.968 437.162 489.156L442.455 494.449L455.747 481.156C455.84 481.063 455.95 480.989 456.072 480.939C456.193 480.889 456.323 480.863 456.455 480.863C456.586 480.863 456.716 480.889 456.838 480.939C456.959 480.989 457.069 481.063 457.162 481.156ZM471.455 487.864C471.455 492.808 469.988 497.642 467.241 501.753C464.494 505.864 460.59 509.068 456.022 510.961C451.454 512.853 446.427 513.348 441.577 512.383C436.728 511.419 432.273 509.038 428.777 505.541C425.281 502.045 422.9 497.59 421.935 492.741C420.97 487.891 421.465 482.865 423.358 478.296C425.25 473.728 428.454 469.824 432.565 467.077C436.677 464.33 441.51 462.864 446.455 462.864C453.083 462.871 459.437 465.507 464.124 470.194C468.811 474.881 471.447 481.235 471.455 487.864ZM469.455 487.864C469.455 483.315 468.106 478.868 465.578 475.085C463.051 471.303 459.459 468.355 455.256 466.614C451.054 464.874 446.429 464.418 441.968 465.306C437.506 466.193 433.408 468.383 430.191 471.6C426.975 474.817 424.784 478.915 423.897 483.376C423.009 487.838 423.465 492.463 425.205 496.665C426.946 500.868 429.894 504.46 433.676 506.987C437.459 509.515 441.906 510.864 446.455 510.864C452.553 510.857 458.399 508.432 462.711 504.12C467.023 499.808 469.448 493.962 469.455 487.864Z" fill="black"/>
<path d="M56 181V213C56 213.53 55.7893 214.039 55.4142 214.414C55.0391 214.789 54.5304 215 54 215H37.7325L33.7325 222C33.5577 222.307 33.3049 222.562 32.9997 222.739C32.6946 222.916 32.3479 223.01 31.995 223.01C31.6421 223.01 31.2954 222.916 30.9903 222.739C30.6851 222.562 30.4323 222.307 30.2575 222L26.2575 215H10C9.46957 215 8.96086 214.789 8.58579 214.414C8.21071 214.039 8 213.53 8 213V181C8 180.47 8.21071 179.961 8.58579 179.586C8.96086 179.211 9.46957 179 10 179H54C54.5304 179 55.0391 179.211 55.4142 179.586C55.7893 179.961 56 180.47 56 181Z" fill="#FF8DBD"/>
<path d="M34.4473 196.568C34.4473 196.964 34.33 197.35 34.1102 197.679C33.8904 198.008 33.5781 198.264 33.2126 198.416C32.8472 198.567 32.445 198.607 32.0571 198.53C31.6691 198.453 31.3128 198.262 31.0331 197.982C30.7533 197.703 30.5629 197.346 30.4857 196.958C30.4085 196.57 30.4481 196.168 30.5995 195.803C30.7509 195.437 31.0072 195.125 31.3361 194.905C31.665 194.685 32.0517 194.568 32.4473 194.568C32.9777 194.568 33.4864 194.779 33.8615 195.154C34.2366 195.529 34.4473 196.038 34.4473 196.568ZM21.4473 194.568C21.0517 194.568 20.665 194.685 20.3361 194.905C20.0072 195.125 19.7509 195.437 19.5995 195.803C19.4481 196.168 19.4085 196.57 19.4857 196.958C19.5629 197.346 19.7533 197.703 20.0331 197.982C20.3128 198.262 20.6691 198.453 21.0571 198.53C21.445 198.607 21.8472 198.567 22.2126 198.416C22.5781 198.264 22.8904 198.008 23.1102 197.679C23.33 197.35 23.4473 196.964 23.4473 196.568C23.4473 196.038 23.2366 195.529 22.8615 195.154C22.4864 194.779 21.9777 194.568 21.4473 194.568ZM43.4473 194.568C43.0517 194.568 42.665 194.685 42.3361 194.905C42.0072 195.125 41.7509 195.437 41.5995 195.803C41.4481 196.168 41.4085 196.57 41.4857 196.958C41.5629 197.346 41.7533 197.703 42.0331 197.982C42.3128 198.262 42.6691 198.453 43.0571 198.53C43.445 198.607 43.8472 198.567 44.2126 198.416C44.5781 198.264 44.8904 198.008 45.1102 197.679C45.33 197.35 45.4473 196.964 45.4473 196.568C45.4473 196.038 45.2366 195.529 44.8615 195.154C44.4864 194.779 43.9777 194.568 43.4473 194.568ZM57.4473 180.568V212.568C57.4473 213.364 57.1312 214.127 56.5686 214.689C56.006 215.252 55.2429 215.568 54.4473 215.568H38.7598L35.0523 222.068C34.7899 222.527 34.4108 222.909 33.9533 223.175C33.4958 223.44 32.9762 223.58 32.4473 223.58C31.9183 223.58 31.3987 223.44 30.9412 223.175C30.4838 222.909 30.1046 222.527 29.8423 222.068L26.1348 215.568H10.4473C9.65162 215.568 8.88855 215.252 8.32595 214.689C7.76334 214.127 7.44727 213.364 7.44727 212.568V180.568C7.44727 179.772 7.76334 179.009 8.32595 178.447C8.88855 177.884 9.65162 177.568 10.4473 177.568H54.4473C55.2429 177.568 56.006 177.884 56.5686 178.447C57.1312 179.009 57.4473 179.772 57.4473 180.568ZM55.4473 180.568C55.4473 180.303 55.3419 180.049 55.1544 179.861C54.9668 179.673 54.7125 179.568 54.4473 179.568H10.4473C10.182 179.568 9.9277 179.673 9.74016 179.861C9.55262 180.049 9.44727 180.303 9.44727 180.568V212.568C9.44727 212.833 9.55262 213.088 9.74016 213.275C9.9277 213.463 10.182 213.568 10.4473 213.568H26.7148C26.8906 213.568 27.0633 213.614 27.2156 213.702C27.3679 213.79 27.4944 213.916 27.5823 214.068L31.5823 221.068C31.6698 221.221 31.7962 221.348 31.9485 221.436C32.1008 221.524 32.2737 221.571 32.4498 221.571C32.6258 221.571 32.7987 221.524 32.951 221.436C33.1034 221.348 33.2297 221.221 33.3173 221.068L37.3173 214.068C37.4052 213.916 37.5316 213.79 37.6839 213.702C37.8362 213.614 38.009 213.568 38.1848 213.568H54.4473C54.7125 213.568 54.9668 213.463 55.1544 213.275C55.3419 213.088 55.4473 212.833 55.4473 212.568V180.568Z" fill="black"/>
<defs>
<clipPath id="clip0_195_7585">
<rect width="80" height="80" fill="white" transform="matrix(-0.866025 0.5 0.5 0.866025 343.534 9.60022)"/>
</clipPath>
<clipPath id="clip1_195_7585">
<rect width="80" height="80" fill="white" transform="translate(270 10.6275) rotate(30)"/>
</clipPath>
</defs>
</svg>
